<?xml version="1.0" encoding="UTF-8" standalone="no"?>
<!-- Created with Inkscape (http://www.inkscape.org/) -->

<svg
   xmlns:dc="http://purl.org/dc/elements/1.1/"
   xmlns:cc="http://creativecommons.org/ns#"
   xmlns:rdf="http://www.w3.org/1999/02/22-rdf-syntax-ns#"
   xmlns:svg="http://www.w3.org/2000/svg"
   xmlns="http://www.w3.org/2000/svg"
   xmlns:sodipodi="http://sodipodi.sourceforge.net/DTD/sodipodi-0.dtd"
   xmlns:inkscape="http://www.inkscape.org/namespaces/inkscape"
   width="108.22303mm"
   height="112.74579mm"
   viewBox="0 0 383.46743 399.49295"
   id="svg2"
   version="1.1"
   inkscape:version="0.91 r13725"
   sodipodi:docname="image_1.svg">
  <defs
     id="defs4" />
  <sodipodi:namedview
     id="base"
     pagecolor="#ffffff"
     bordercolor="#666666"
     borderopacity="1.0"
     inkscape:pageopacity="0.0"
     inkscape:pageshadow="2"
     inkscape:zoom="1.9049147"
     inkscape:cx="80.180169"
     inkscape:cy="199.74648"
     inkscape:document-units="px"
     inkscape:current-layer="layer1"
     showgrid="false"
     inkscape:window-width="1600"
     inkscape:window-height="876"
     inkscape:window-x="0"
     inkscape:window-y="204"
     inkscape:window-maximized="1"
     inkscape:snap-page="true"
     fit-margin-top="0"
     fit-margin-left="0"
     fit-margin-right="0"
     fit-margin-bottom="0" />
  <metadata
     id="metadata7">
    <rdf:RDF>
      <cc:Work
         rdf:about="">
        <dc:format>image/svg+xml</dc:format>
        <dc:type
           rdf:resource="http://purl.org/dc/dcmitype/StillImage" />
        <dc:title></dc:title>
        <cc:license
           rdf:resource="http://creativecommons.org/publicdomain/zero/1.0/" />
      </cc:Work>
      <cc:License
         rdf:about="http://creativecommons.org/publicdomain/zero/1.0/">
        <cc:permits
           rdf:resource="http://creativecommons.org/ns#Reproduction" />
        <cc:permits
           rdf:resource="http://creativecommons.org/ns#Distribution" />
        <cc:permits
           rdf:resource="http://creativecommons.org/ns#DerivativeWorks" />
      </cc:License>
    </rdf:RDF>
  </metadata>
  <g
     inkscape:label="Calque 1"
     inkscape:groupmode="layer"
     id="layer1"
     transform="translate(-11.446789,-40.466045)">
    <rect
       style="opacity:0.98999999;fill:#7bab64;fill-opacity:1;fill-rule:nonzero;stroke:none;stroke-width:0.1;stroke-linecap:butt;stroke-miterlimit:4;stroke-dasharray:none;stroke-dashoffset:0;stroke-opacity:1"
       id="rect8068"
       width="383.46744"
       height="399.49295"
       x="11.446789"
       y="40.466045" />
    <ellipse
       style="opacity:0.98999999;fill:#d8b741;fill-opacity:1;fill-rule:nonzero;stroke:none;stroke-width:0.1;stroke-linecap:butt;stroke-miterlimit:4;stroke-dasharray:none;stroke-dashoffset:0;stroke-opacity:1"
       id="path8151-2-7"
       cx="217.02106"
       cy="-145.51802"
       rx="16.720024"
       ry="23.858679"
       transform="matrix(0.3117151,0.95017561,-0.92285788,0.38514068,0,0)" />
    <path
       style="opacity:0.98999999;fill:#24581b;fill-opacity:1;fill-rule:nonzero;stroke:none;stroke-width:0.1;stroke-linecap:butt;stroke-miterlimit:4;stroke-dasharray:none;stroke-dashoffset:0;stroke-opacity:1"
       d="m 101.5,286.3622 2.5,11.5 15.5,5.5 25,6 52,0 25.5,-2 0,-8 9.5,4.5 25.5,1.5 -5,-12 c 0,0 1,-3.5 3,-3.5 2,0 17.5,3 17.5,3 l 18,-1.5 4,-8 c 0,0 0.5,-6 -1.5,-8 -2,-2 -22,-21.5 -22,-21.5 l -33,0.5 -69.5,12.5 z"
       id="path8196"
       inkscape:connector-curvature="0"
       sodipodi:nodetypes="ccccccccccscccscccc" />
    <path
       style="opacity:0.98999999;fill:#fcfcfc;fill-opacity:1;fill-rule:nonzero;stroke:none;stroke-width:0.1;stroke-linecap:butt;stroke-miterlimit:4;stroke-dasharray:none;stroke-dashoffset:0;stroke-opacity:1"
       d="m 77.131408,204.8631 -6.624783,14.19597 -1.892795,18.92795 5.205187,10.88357 10.410374,8.51758 18.927949,0.9464 10.41038,-33.12392 -12.77637,-16.08875 -11.829971,-8.04439 -9.937175,-12.77636 z"
       id="path8080"
       inkscape:connector-curvature="0"
       sodipodi:nodetypes="ccccccccccc" />
    <path
       style="opacity:0.98999999;fill:#774e21;fill-opacity:1;fill-rule:nonzero;stroke:none;stroke-width:0.1;stroke-linecap:butt;stroke-miterlimit:4;stroke-dasharray:none;stroke-dashoffset:0;stroke-opacity:1"
       d="m 236.59941,224.26426 c 2.83919,-0.4732 30.28473,10.88357 30.28473,10.88357 l 19.87435,18.45475 2.83919,14.66917 -4.85029,-1.3013 -7.45506,-8.07369 4.00593,8.07587 -11.10173,-3.90607 -13.72277,-14.19597 -23.65994,-1.41959 z"
       id="path8074"
       inkscape:connector-curvature="0"
       sodipodi:nodetypes="ccccccccccc" />
    <ellipse
       style="opacity:0.98999999;fill:#906332;fill-opacity:1;fill-rule:nonzero;stroke:none;stroke-width:0.1;stroke-linecap:butt;stroke-miterlimit:4;stroke-dasharray:none;stroke-dashoffset:0;stroke-opacity:1"
       id="path8070"
       cx="56.406311"
       cy="277.98608"
       rx="74.101692"
       ry="58.95084"
       transform="matrix(0.93016425,-0.36714367,0.41044807,0.91188397,0,0)" />
    <ellipse
       style="opacity:0.98999999;fill:#906332;fill-opacity:1;fill-rule:nonzero;stroke:none;stroke-width:0.1;stroke-linecap:butt;stroke-miterlimit:4;stroke-dasharray:none;stroke-dashoffset:0;stroke-opacity:1"
       id="path8072"
       cx="261.91556"
       cy="184.75215"
       rx="44.717289"
       ry="39.038902" />
    <path
       style="opacity:0.98999999;fill:#a28829;fill-opacity:1;fill-rule:nonzero;stroke:none;stroke-width:0.1;stroke-linecap:butt;stroke-miterlimit:4;stroke-dasharray:none;stroke-dashoffset:0;stroke-opacity:1"
       d="m 212.03155,165.33043 c -5.96512,3.65856 -12.66996,5.60738 -18.68806,5.80062 -6.01808,0.19325 -11.34946,-1.36909 -14.56764,-4.73278 -3.21817,-3.36369 -3.71384,-7.89189 -1.91368,-12.49379 5.47692,6.40657 7.5857,8.85312 14.05056,10.84856 12.76836,3.94104 22.70932,-4.28458 22.70932,-4.28458 4.24469,-3.24728 11.77908,-7.84114 9.86538,-20.33493 3.21818,3.3637 2.20553,7.6589 0.40539,12.2608 -1.80015,4.60191 -5.89614,9.27754 -11.86127,12.9361 z"
       id="path8117-6-5-0-5"
       inkscape:connector-curvature="0"
       sodipodi:nodetypes="ssscsscss" />
    <path
       style="opacity:0.98999999;fill:#906332;fill-opacity:1;fill-rule:nonzero;stroke:none;stroke-width:0.1;stroke-linecap:butt;stroke-miterlimit:4;stroke-dasharray:none;stroke-dashoffset:0;stroke-opacity:1"
       d="m 264.99135,162.27521 -18.45476,-47.79308 -19.59,-28.867304 -25.84144,-21.573954 7.33894,18.500337 2.12939,20.584151 5.55465,12.87621 15.71324,21.73241 17.06122,20.75564 z"
       id="path8076"
       inkscape:connector-curvature="0"
       sodipodi:nodetypes="cccccccccc" />
    <path
       style="opacity:0.98999999;fill:#906332;fill-opacity:1;fill-rule:nonzero;stroke:none;stroke-width:0.1;stroke-linecap:butt;stroke-miterlimit:4;stroke-dasharray:none;stroke-dashoffset:0;stroke-opacity:1"
       d="m 264.99134,146.65965 6.62479,-52.525072 11.82997,-11.829971 28.86513,22.240343 22.24034,50.15908 -14.19596,-4.25879 -23.18675,-18.92795 -11.35677,-8.99078 -15.61556,29.81152 z"
       id="path8078"
       inkscape:connector-curvature="0" />
    <path
       style="opacity:0.98999999;fill:#ff85a6;fill-opacity:1;fill-rule:nonzero;stroke:none;stroke-width:0.1;stroke-linecap:butt;stroke-miterlimit:4;stroke-dasharray:none;stroke-dashoffset:0;stroke-opacity:1"
       d="m 285.33889,184.51555 -7.57118,9.46398 -8.92965,-5.80934 z"
       id="path8082"
       inkscape:connector-curvature="0"
       sodipodi:nodetypes="cccc" />
    <ellipse
       style="opacity:0.98999999;fill:#ffffff;fill-opacity:1;fill-rule:nonzero;stroke:none;stroke-width:0.1;stroke-linecap:butt;stroke-miterlimit:4;stroke-dasharray:none;stroke-dashoffset:0;stroke-opacity:1"
       id="path8084"
       ry="8.4066992"
       rx="7.0578227"
       cy="175.63565"
       cx="261.03464" />
    <ellipse
       style="opacity:0.98999999;fill:#fefefd;fill-opacity:1;fill-rule:nonzero;stroke:none;stroke-width:0.1;stroke-linecap:butt;stroke-miterlimit:4;stroke-dasharray:none;stroke-dashoffset:0;stroke-opacity:1"
       id="path8086"
       cx="292.56259"
       cy="173.09854"
       rx="3.4381111"
       ry="7.1582217" />
    <path
       style="opacity:0.98999999;fill:#fefefd;fill-opacity:1;fill-rule:nonzero;stroke:none;stroke-width:0.1;stroke-linecap:butt;stroke-miterlimit:4;stroke-dasharray:none;stroke-dashoffset:0;stroke-opacity:1"
       d="m 274.45532,199.65792 6.62478,-2.8392 0,11.82997 -6.62478,1.8928 z"
       id="path8088"
       inkscape:connector-curvature="0"
       sodipodi:nodetypes="ccccc" />
    <path
       style="opacity:0.98999999;fill:#3e2000;fill-opacity:1;fill-rule:nonzero;stroke:none;stroke-width:0.1;stroke-linecap:butt;stroke-miterlimit:4;stroke-dasharray:none;stroke-dashoffset:0;stroke-opacity:1"
       d="m 215.77867,182.42703 -6.62479,22.90712 -1.8928,35.97602 11.35678,29.12539 -9.46398,8.24656 -13.24956,-32.74535 1.41959,-38.77005 9.46398,-30.69555 7.09798,5.03957 z"
       id="path8090"
       inkscape:connector-curvature="0"
       sodipodi:nodetypes="cccccccccc" />
    <ellipse
       style="opacity:0.98999999;fill:#000000;fill-opacity:1;fill-rule:nonzero;stroke:none;stroke-width:0.1;stroke-linecap:butt;stroke-miterlimit:4;stroke-dasharray:none;stroke-dashoffset:0;stroke-opacity:1"
       id="path8092"
       cx="261.20575"
       cy="177.18097"
       rx="2.8391931"
       ry="3.5489912" />
    <ellipse
       style="opacity:0.98999999;fill:#000000;fill-opacity:1;fill-rule:nonzero;stroke:none;stroke-width:0.1;stroke-linecap:butt;stroke-miterlimit:4;stroke-dasharray:none;stroke-dashoffset:0;stroke-opacity:1"
       id="path8092-3"
       cx="292.67346"
       cy="175.99799"
       rx="2.1293948"
       ry="3.5489912" />
    <ellipse
       style="opacity:0.98999999;fill:#7a39cd;fill-opacity:1;fill-rule:nonzero;stroke:none;stroke-width:0.1;stroke-linecap:butt;stroke-miterlimit:4;stroke-dasharray:none;stroke-dashoffset:0;stroke-opacity:1"
       id="path8151-2-2"
       cx="207.46021"
       cy="-175.77345"
       rx="16.720024"
       ry="23.858679"
       transform="matrix(0.13285615,0.99113533,-0.97769343,0.21003703,0,0)" />
    <ellipse
       style="opacity:0.98999999;fill:#73e1e6;fill-opacity:1;fill-rule:nonzero;stroke:none;stroke-width:0.1;stroke-linecap:butt;stroke-miterlimit:4;stroke-dasharray:none;stroke-dashoffset:0;stroke-opacity:1"
       id="path8151-2"
       cx="235.70216"
       cy="-15.765737"
       rx="16.720024"
       ry="23.858679"
       transform="matrix(0.79896492,0.60137764,-0.53698713,0.84359043,0,0)" />
    <path
       style="opacity:0.98999999;fill:#f9f9f9;fill-opacity:1;fill-rule:nonzero;stroke:none;stroke-width:0.1;stroke-linecap:butt;stroke-miterlimit:4;stroke-dasharray:none;stroke-dashoffset:0;stroke-opacity:1"
       d="m 251.74178,147.13285 -13.72277,-33.59712 -25.86097,-33.505955 8.6114,32.818345 15.82997,22.45476 7.09799,3.78559 z"
       id="path8109"
       inkscape:connector-curvature="0"
       sodipodi:nodetypes="ccccccc" />
    <path
       style="opacity:0.98999999;fill:#d2c9c9;fill-opacity:1;fill-rule:nonzero;stroke:none;stroke-width:0.1;stroke-linecap:butt;stroke-miterlimit:4;stroke-dasharray:none;stroke-dashoffset:0;stroke-opacity:1"
       d="m 94.032117,241.498 -14.5867,-8.07478 -5.470012,-9.63764 2.604768,-11.72146 1.56286,-23.96386 -3.125721,21.35909 -5.209536,8.85621 -2.604767,14.5867 2.604767,13.02384 8.335257,9.37717 8.335257,4.16762 10.419071,0 z"
       id="path8169"
       inkscape:connector-curvature="0" />
    <path
       style="opacity:0.98999999;fill:#906333;fill-opacity:1;fill-rule:nonzero;stroke:none;stroke-width:0.1;stroke-linecap:butt;stroke-miterlimit:4;stroke-dasharray:none;stroke-dashoffset:0;stroke-opacity:1"
       d="m 124.45129,231.83544 20.34755,5.67838 10.88357,15.61556 3.3124,24.60634 -6.62479,14.66917 21.76715,-6.15159 19.40115,1.8928 17.03516,13.24956 -13.24957,0.2366 -6.73765,-3.67055 3.16048,3.6228 -36.17153,0.75755 -30.28473,0.4732 -20.34755,-7.33458 -8.044375,-10.17378 -4.731988,-24.60634 -0.946397,-20.82074 z"
       id="path8111"
       inkscape:connector-curvature="0"
       sodipodi:nodetypes="cccccccccccccccccc" />
    <path
       style="opacity:0.98999999;fill:#906333;fill-opacity:1;fill-rule:nonzero;stroke:none;stroke-width:0.1;stroke-linecap:butt;stroke-miterlimit:4;stroke-dasharray:none;stroke-dashoffset:0;stroke-opacity:1"
       d="m 210.57347,249.81699 9.46399,35.01672 6.8896,15.09461 21.97552,1.46734 -6.15158,-4.25878 8.99078,1.41959 -10.41038,-8.04438 -5.8173,-3.71613 -2.4615,-17.39114 10.88601,-20.66823 2.7902,-17.30317 -6.2098,-16.30317 -17.64236,18.12478 z"
       id="path8113"
       inkscape:connector-curvature="0"
       sodipodi:nodetypes="cccccccccccccc" />
    <ellipse
       style="opacity:0.98999999;fill:#dbf0d7;fill-opacity:1;fill-rule:nonzero;stroke:none;stroke-width:0.1;stroke-linecap:butt;stroke-miterlimit:4;stroke-dasharray:none;stroke-dashoffset:0;stroke-opacity:1"
       id="path8117"
       cx="385.14276"
       cy="370.34827"
       rx="27.445532"
       ry="38.431206"
       transform="matrix(1,0,-0.17238033,0.98503047,0,0)" />
    <ellipse
       style="opacity:0.98999999;fill:#c76218;fill-opacity:1;fill-rule:nonzero;stroke:none;stroke-width:0.1;stroke-linecap:butt;stroke-miterlimit:4;stroke-dasharray:none;stroke-dashoffset:0;stroke-opacity:1"
       id="path8119"
       cx="307.34265"
       cy="383.25906"
       rx="7.3345819"
       ry="7.0979824" />
    <ellipse
       style="opacity:0.98999999;fill:#c76218;fill-opacity:1;fill-rule:nonzero;stroke:none;stroke-width:0.1;stroke-linecap:butt;stroke-miterlimit:4;stroke-dasharray:none;stroke-dashoffset:0;stroke-opacity:1"
       id="path8121"
       cx="327.45358"
       cy="335.22937"
       rx="3.7855906"
       ry="4.0221901" />
    <ellipse
       style="opacity:0.98999999;fill:#c76218;fill-opacity:1;fill-rule:nonzero;stroke:none;stroke-width:0.1;stroke-linecap:butt;stroke-miterlimit:4;stroke-dasharray:none;stroke-dashoffset:0;stroke-opacity:1"
       id="path8123"
       cx="315.15042"
       cy="351.08154"
       rx="6.1515846"
       ry="6.6247835" />
    <ellipse
       style="opacity:0.98999999;fill:#c76218;fill-opacity:1;fill-rule:nonzero;stroke:none;stroke-width:0.1;stroke-linecap:butt;stroke-miterlimit:4;stroke-dasharray:none;stroke-dashoffset:0;stroke-opacity:1"
       id="path8125"
       cx="303.79364"
       cy="360.54553"
       rx="1.8927953"
       ry="2.3659942" />
    <ellipse
       style="opacity:0.98999999;fill:#c76218;fill-opacity:1;fill-rule:nonzero;stroke:none;stroke-width:0.1;stroke-linecap:butt;stroke-miterlimit:4;stroke-dasharray:none;stroke-dashoffset:0;stroke-opacity:1"
       id="path8127"
       cx="319.88242"
       cy="366.22391"
       rx="3.7855906"
       ry="4.2587895" />
    <circle
       style="opacity:0.98999999;fill:#c76218;fill-opacity:1;fill-rule:nonzero;stroke:none;stroke-width:0.1;stroke-linecap:butt;stroke-miterlimit:4;stroke-dasharray:none;stroke-dashoffset:0;stroke-opacity:1"
       id="path8129"
       cx="336.68097"
       cy="351.31815"
       r="3.0757923" />
    <path
       style="opacity:0.98999999;fill:#b3b3b3;fill-opacity:1;fill-rule:nonzero;stroke:none;stroke-width:0.1;stroke-linecap:butt;stroke-miterlimit:4;stroke-dasharray:none;stroke-dashoffset:0;stroke-opacity:1"
       d="m 349.69392,366.69711 c -1.82938,10.45361 -6.55752,19.9176 -12.72304,26.76817 -6.16551,6.85057 -13.7684,11.08774 -21.34727,11.08774 -7.57887,0 -13.69876,-4.23717 -17.46657,-11.08774 13.74054,0.72061 19.00615,0.97675 28.35014,-4.05463 18.45475,-9.93718 18.87463,-29.60736 18.87463,-29.60736 -1.84099,-9.03076 2.85073,-21.29395 -14.61583,-32.38169 7.57887,0 11.80594,5.65677 15.57376,12.50734 3.76781,6.85057 5.18357,16.31455 3.35418,26.76817 z"
       id="path8117-6"
       inkscape:connector-curvature="0"
       sodipodi:nodetypes="ssscsscss" />
    <ellipse
       style="opacity:0.98999999;fill:#c76218;fill-opacity:1;fill-rule:nonzero;stroke:none;stroke-width:0.1;stroke-linecap:butt;stroke-miterlimit:4;stroke-dasharray:none;stroke-dashoffset:0;stroke-opacity:1"
       id="path8131"
       cx="336.68097"
       cy="365.5141"
       rx="4.495389"
       ry="4.0221901" />
    <ellipse
       style="opacity:0.98999999;fill:#c76218;fill-opacity:1;fill-rule:nonzero;stroke:none;stroke-width:0.1;stroke-linecap:butt;stroke-miterlimit:4;stroke-dasharray:none;stroke-dashoffset:0;stroke-opacity:1"
       id="path8133"
       cx="328.6366"
       cy="385.86166"
       rx="4.495389"
       ry="4.0221901" />
    <ellipse
       style="opacity:0.98999999;fill:#ffffff;fill-opacity:1;fill-rule:nonzero;stroke:none;stroke-width:0.1;stroke-linecap:butt;stroke-miterlimit:4;stroke-dasharray:none;stroke-dashoffset:0;stroke-opacity:1"
       id="path8151"
       cx="50.431004"
       cy="455.04773"
       rx="19.637751"
       ry="27.208933"
       transform="matrix(0.89270245,-0.45064658,0.45064658,0.89270245,0,0)" />
    <path
       style="opacity:0.98999999;fill:#b3b3b3;fill-opacity:1;fill-rule:nonzero;stroke:none;stroke-width:0.1;stroke-linecap:butt;stroke-miterlimit:4;stroke-dasharray:none;stroke-dashoffset:0;stroke-opacity:1"
       d="m 266.38852,369.03835 c 4.64448,6.37979 7.41747,13.92206 8.14621,20.95888 0.72875,7.03681 -0.58675,13.56819 -4.1192,17.92621 -3.53246,4.35801 -8.61306,5.71754 -13.97166,4.3926 6.78331,-7.53384 9.37227,-10.43114 11.08164,-18.36846 3.37605,-15.67655 -6.77202,-25.94323 -6.77202,-25.94323 -4.03336,-4.42924 -9.86895,-12.49206 -23.84059,-8.09945 3.53246,-4.35802 8.47734,-3.9056 13.83593,-2.58067 5.3586,1.32492 10.99521,5.33431 15.63969,11.71412 z"
       id="path8117-6-5"
       inkscape:connector-curvature="0"
       sodipodi:nodetypes="ssscsscss" />
    <path
       style="opacity:0.98999999;fill:#580207;fill-opacity:1;fill-rule:nonzero;stroke:none;stroke-width:0.1;stroke-linecap:butt;stroke-miterlimit:4;stroke-dasharray:none;stroke-dashoffset:0;stroke-opacity:1"
       d="m 273.02715,382.87525 1.08188,3.5407 -3.04894,4.72093 -5.4094,5.90117 -11.50726,6.39292 -10.22869,2.06541 -3.14729,-2.36047 15.34303,-4.81928 8.65503,-5.50776 z"
       id="path8289"
       inkscape:connector-curvature="0"
       sodipodi:nodetypes="cccccccccc" />
    <path
       style="opacity:0.98999999;fill:#595959;fill-opacity:1;fill-rule:nonzero;stroke:none;stroke-width:0.1;stroke-linecap:butt;stroke-miterlimit:4;stroke-dasharray:none;stroke-dashoffset:0;stroke-opacity:1"
       d="m 304,348.8622 -9,-1.5 -2.01753,-6.5 -13.48247,1 0.5,5.5 -9,2 -12,54.5 14.5,10.5 17.5,2 26.5,-2 8,-7 z"
       id="path8522"
       inkscape:connector-curvature="0"
       sodipodi:nodetypes="cccccccccccc" />
    <path
       style="opacity:0.98999999;fill:#3f3939;fill-opacity:1;fill-rule:nonzero;stroke:none;stroke-width:0.1;stroke-linecap:butt;stroke-miterlimit:4;stroke-dasharray:none;stroke-dashoffset:0;stroke-opacity:1"
       d="m 280.43252,341.91959 c 0.81403,-0.40701 12.82093,-1.22104 12.82093,-1.22104 l 1.42455,5.49469 9.97184,2.64559 11.59989,29.712 8.95431,26.86292 -8.54729,9.97183 -17.09458,-64.30818 -10.58236,-1.62805 -8.7508,0.2035 10.78587,-2.03507 -0.61052,-4.88416 z"
       id="path8524"
       inkscape:connector-curvature="0" />
    <path
       style="opacity:0.98999999;fill:#24581b;fill-opacity:1;fill-rule:nonzero;stroke:none;stroke-width:0.1;stroke-linecap:butt;stroke-miterlimit:4;stroke-dasharray:none;stroke-dashoffset:0;stroke-opacity:1"
       d="m 309.94523,407.8654 29.33833,-22.71354 -21.76715,22.71354 22.24035,-10.88357 -11.35677,10.88357 25.55273,-5.67838 -18.92795,11.35677 21.76715,3.78559 -23.65995,0.4732 -11.35677,-6.15159 -19.87435,0.4732 -26.97233,7.57118 8.99078,-7.09798 -18.45476,4.25879 -29.81152,8.04438 12.77636,-7.09798 -16.56195,-4.25879 23.65994,-0.4732 -17.50836,-8.51758 23.18674,4.73199 -2.36599,-7.09798 8.04438,3.78559 4.25879,-12.30317 1.89279,9.93717 7.57119,-12.77637 0.47319,15.61556 12.30317,-8.04438 -0.4732,8.04438 12.77637,-12.77636 -5.67838,11.35677 11.35677,-8.51758 z"
       id="path8153"
       inkscape:connector-curvature="0" />
    <path
       style="opacity:0.98999999;fill:#531c9a;fill-opacity:1;fill-rule:nonzero;stroke:none;stroke-width:0.1;stroke-linecap:butt;stroke-miterlimit:4;stroke-dasharray:none;stroke-dashoffset:0;stroke-opacity:1"
       d="m 206.56412,186.13842 c -6.53318,2.50705 -13.48123,3.19799 -19.43333,2.28838 -5.95208,-0.9096 -10.90825,-3.41976 -13.45765,-7.31483 -2.5494,-3.89508 -2.20936,-8.43762 0.40134,-12.63314 4.21414,7.29944 5.8404,10.09012 11.83183,13.23319 11.83333,6.20767 23.10989,-0.0631 23.10989,-0.0631 4.76656,-2.41705 13.01349,-5.55693 13.41481,-18.19006 2.5494,3.89508 0.769,7.93296 -1.84168,12.12847 -2.61068,4.19552 -7.49203,8.04405 -14.02521,10.5511 z"
       id="path8117-6-5-0-3"
       inkscape:connector-curvature="0"
       sodipodi:nodetypes="ssscsscss" />
    <path
       style="opacity:0.98999999;fill:#3fbebc;fill-opacity:1;fill-rule:nonzero;stroke:none;stroke-width:0.1;stroke-linecap:butt;stroke-miterlimit:4;stroke-dasharray:none;stroke-dashoffset:0;stroke-opacity:1"
       d="m 213.27984,135.34859 c -2.80257,6.41197 -7.18951,11.84405 -12.01667,15.44314 -4.82714,3.59908 -10.09453,5.36518 -14.65794,4.44522 -4.56341,-0.91996 -7.55886,-4.35181 -8.71279,-9.15666 8.15624,2.12522 11.28511,2.92694 17.73008,0.86817 12.72906,-4.06617 16.18269,-16.49822 16.18269,-16.49822 1.62615,-5.09096 5.18154,-13.16746 -3.53126,-22.3241 4.56342,0.91996 6.18814,5.02295 7.34208,9.82778 1.15395,4.80484 0.46639,10.9827 -2.33619,17.39467 z"
       id="path8117-6-5-0"
       inkscape:connector-curvature="0"
       sodipodi:nodetypes="ssscsscss" />
    <path
       style="opacity:0.98999999;fill:#3f8ff9;fill-opacity:1;fill-rule:nonzero;stroke:none;stroke-width:0.1;stroke-linecap:butt;stroke-miterlimit:4;stroke-dasharray:none;stroke-dashoffset:0;stroke-opacity:1"
       d="m 192.64325,109.78628 6.70371,4.76316 6.35087,2.11696 9.87914,1.58772 0.52924,4.41033 -7.05652,-0.52924 -9.34991,-2.6462 -7.05653,-4.0575 z"
       id="path8585"
       inkscape:connector-curvature="0"
       sodipodi:nodetypes="ccccccccc" />
    <path
       style="opacity:0.98999999;fill:#3f8ff9;fill-opacity:1;fill-rule:nonzero;stroke:none;stroke-width:0.1;stroke-linecap:butt;stroke-miterlimit:4;stroke-dasharray:none;stroke-dashoffset:0;stroke-opacity:1"
       d="m 189.54691,124.03556 6.70371,4.76316 6.35087,2.11696 11.81969,1.58772 -1.94055,4.41033 -6.52728,-0.52924 -9.34991,-2.6462 -7.05653,-4.0575 z"
       id="path8585-2"
       inkscape:connector-curvature="0"
       sodipodi:nodetypes="ccccccccc" />
    <path
       style="opacity:0.98999999;fill:#4f3a23;fill-opacity:1;fill-rule:nonzero;stroke:none;stroke-width:0.1;stroke-linecap:butt;stroke-miterlimit:4;stroke-dasharray:none;stroke-dashoffset:0;stroke-opacity:1"
       d="m 191.09246,107.85734 -1.60234,37.22651 7.61112,26.15917 9.21345,15.59488 -83.32168,24.64998 -8.21199,-7.29438 -8.21199,-7.29437 -6.906419,-13.24803 -2.906419,-15.24802 -1.876702,-17.91765 3.123299,-12.91764 z"
       id="path8155"
       inkscape:connector-curvature="0"
       sodipodi:nodetypes="cccccccccccc" />
    <path
       style="opacity:0.98999999;fill:#774e22;fill-opacity:1;fill-rule:nonzero;stroke:none;stroke-width:0.1;stroke-linecap:butt;stroke-miterlimit:4;stroke-dasharray:none;stroke-dashoffset:0;stroke-opacity:1"
       d="m 277.76212,194.10089 -4.05,6.41249 -12.14998,5.73749 -12.48748,-2.69999 -0.3375,-4.3875 2.69999,-2.69999 -7.76249,2.69999 4.3875,0.675 1.35,6.07499 11.13748,3.0375 12.82498,-5.39999 4.05,-5.39999 2.54783,-0.28063 z"
       id="path8157"
       inkscape:connector-curvature="0"
       sodipodi:nodetypes="cccccccccccccc" />
    <path
       style="opacity:0.98999999;fill:#774e22;fill-opacity:1;fill-rule:nonzero;stroke:none;stroke-width:0.1;stroke-linecap:butt;stroke-miterlimit:4;stroke-dasharray:none;stroke-dashoffset:0;stroke-opacity:1"
       d="m 277.42462,195.11339 2.01077,2.7 9.12671,3.37499 5.0388,0.0237 5.76119,-6.77368 -6.58361,4.54439 -7.25387,-1.16939 -5.7375,-3.7125 z"
       id="path8159"
       inkscape:connector-curvature="0"
       sodipodi:nodetypes="ccccccccc" />
    <path
       style="opacity:0.98999999;fill:#774e22;fill-opacity:1;fill-rule:nonzero;stroke:none;stroke-width:0.1;stroke-linecap:butt;stroke-miterlimit:4;stroke-dasharray:none;stroke-dashoffset:0;stroke-opacity:1"
       d="m 267.29963,163.72593 -5.06249,-3.37499 -8.09999,1.68749 -5.06249,6.4125 6.74999,-11.47499 6.74999,-0.3375 z"
       id="path8161"
       inkscape:connector-curvature="0" />
    <path
       style="opacity:0.98999999;fill:#774e22;fill-opacity:1;fill-rule:nonzero;stroke:none;stroke-width:0.1;stroke-linecap:butt;stroke-miterlimit:4;stroke-dasharray:none;stroke-dashoffset:0;stroke-opacity:1"
       d="m 286.5371,165.41343 6.075,-4.72499 6.07499,1.0125 -6.41249,-3.7125 -4.05,1.35 z"
       id="path8163"
       inkscape:connector-curvature="0" />
    <path
       style="opacity:0.98999999;fill:#f9f9f9;fill-opacity:1;fill-rule:nonzero;stroke:none;stroke-width:0.1;stroke-linecap:butt;stroke-miterlimit:4;stroke-dasharray:none;stroke-dashoffset:0;stroke-opacity:1"
       d="m 269.34546,144.38003 7.08199,-38.02593 6.71198,14.30998 -11.13198,24.68395 z"
       id="path8165"
       inkscape:connector-curvature="0"
       sodipodi:nodetypes="ccccc" />
    <path
       style="opacity:0.98999999;fill:#774e22;fill-opacity:1;fill-rule:nonzero;stroke:none;stroke-width:0.1;stroke-linecap:butt;stroke-miterlimit:4;stroke-dasharray:none;stroke-dashoffset:0;stroke-opacity:1"
       d="m 128.15457,233.16274 13.5448,2.86524 9.89811,9.11669 7.29335,17.19147 -1.30238,15.10765 -6.7724,8.85621 38.02961,1.82334 -2.60476,-1.56286 -29.95483,-2.60477 5.20953,-6.51192 0.78143,-14.32622 -8.07478,-19.79624 -14.84717,-9.63764 z"
       id="path8167"
       inkscape:connector-curvature="0" />
    <path
       style="opacity:0.98999999;fill:#24581b;fill-opacity:1;fill-rule:nonzero;stroke:none;stroke-width:0.1;stroke-linecap:butt;stroke-miterlimit:4;stroke-dasharray:none;stroke-dashoffset:0;stroke-opacity:1"
       d="m 318.5,285.8622 1.5,-12 2,11 3.5,-8.5 17,-16 -14.5,18 -1,9 c 0,0 17,-17.5 16.5,-15.5 -0.5,2 -11.5,14 -11.5,14 l 12,-4 -7,10 -10.5,0 z"
       id="path8190"
       inkscape:connector-curvature="0" />
    <path
       style="opacity:0.98999999;fill:#24581b;fill-opacity:1;fill-rule:nonzero;stroke:none;stroke-width:0.1;stroke-linecap:butt;stroke-miterlimit:4;stroke-dasharray:none;stroke-dashoffset:0;stroke-opacity:1"
       d="m 38,332.8622 7,-22 -3,19 7.5,-8 -4.5,12 5,-2.5 -7.5,7.5 15.5,-3 -12.5,5 -11,1.5 -1.5,-5 3.5,0.5 z"
       id="path8192"
       inkscape:connector-curvature="0" />
    <path
       style="opacity:0.98999999;fill:#24581b;fill-opacity:1;fill-rule:nonzero;stroke:none;stroke-width:0.1;stroke-linecap:butt;stroke-miterlimit:4;stroke-dasharray:none;stroke-dashoffset:0;stroke-opacity:1"
       d="m 91,386.3622 7.5,-11.5 -1.5,8.5 7,-5 1,-13.5 3,15.5 -0.5,6 8,-12 1.5,-14 1.5,13.5 -3,9.5 7.5,-8.5 16,-14 -8,14.5 -9.5,7.5 19,-5.5 9.5,-7 -9.5,11.5 -7.5,3.5 17.5,0 -13.5,4.5 -22.5,1.5 -15,-5 z"
       id="path8194"
       inkscape:connector-curvature="0"
       sodipodi:nodetypes="cccccccccccccccccccccccc" />
    <path
       style="opacity:0.98999999;fill:#402201;fill-opacity:1;fill-rule:nonzero;stroke:none;stroke-width:0.1;stroke-linecap:butt;stroke-miterlimit:4;stroke-dasharray:none;stroke-dashoffset:0;stroke-opacity:1"
       d="m 130.86557,203.8622 7.13443,31.5 -9,-2.5 -6,-26 c 3,-1 -4.78639,0.41299 7.86557,-3 z"
       id="path8198"
       inkscape:connector-curvature="0"
       sodipodi:nodetypes="ccccc" />
    <path
       style="opacity:0.98999999;fill:#402301;fill-opacity:1;fill-rule:nonzero;stroke:none;stroke-width:0.1;stroke-linecap:butt;stroke-miterlimit:4;stroke-dasharray:none;stroke-dashoffset:0;stroke-opacity:1"
       d="m 107,134.3622 -9.5,3.5 -4,16 2,22 5.5,17.5 14,14 11,5.5 7,-6.5 -13,-9.5 -10.5,-13 -6,-22.5 z"
       id="path8200"
       inkscape:connector-curvature="0" />
    <path
       sodipodi:type="star"
       style="opacity:0.98999999;fill:#ad6700;fill-opacity:1;fill-rule:nonzero;stroke:none;stroke-width:0.1;stroke-linecap:butt;stroke-miterlimit:4;stroke-dasharray:none;stroke-dashoffset:0;stroke-opacity:1"
       id="path8552-9"
       sodipodi:sides="5"
       sodipodi:cx="201.69501"
       sodipodi:cy="162.79031"
       sodipodi:r1="11.044727"
       sodipodi:r2="5.5223637"
       sodipodi:arg1="1.4909663"
       sodipodi:arg2="2.1192849"
       inkscape:flatsided="false"
       inkscape:rounded="0"
       inkscape:randomized="0"
       d="m 202.57577,173.79987 -3.76011,-6.29725 -7.31919,-0.47251 4.8271,-5.52204 -1.81237,-7.10697 6.74343,2.88444 6.19908,-3.91984 -0.65943,7.30472 5.64361,4.68438 -7.15098,1.63012 z"
       inkscape:transform-center-x="-0.18163187"
       inkscape:transform-center-y="0.56689794"
       transform="matrix(0.66734005,0,0,0.71535769,79.422638,55.369018)" />
    <path
       sodipodi:type="star"
       style="opacity:0.98999999;fill:#ad6700;fill-opacity:1;fill-rule:nonzero;stroke:none;stroke-width:0.1;stroke-linecap:butt;stroke-miterlimit:4;stroke-dasharray:none;stroke-dashoffset:0;stroke-opacity:1"
       id="path8552"
       sodipodi:sides="5"
       sodipodi:cx="201.69501"
       sodipodi:cy="162.79031"
       sodipodi:r1="11.044727"
       sodipodi:r2="5.5223637"
       sodipodi:arg1="1.4909663"
       sodipodi:arg2="2.1192849"
       inkscape:flatsided="false"
       inkscape:rounded="0"
       inkscape:randomized="0"
       d="m 202.57577,173.79987 -3.76011,-6.29725 -7.31919,-0.47251 4.8271,-5.52204 -1.81237,-7.10697 6.74343,2.88444 6.19908,-3.91984 -0.65943,7.30472 5.64361,4.68438 -7.15098,1.63012 z"
       inkscape:transform-center-x="-0.25500145"
       inkscape:transform-center-y="0.65583933"
       transform="matrix(0.93691227,0,0,0.82758991,10.756026,26.79462)" />
    <path
       style="opacity:0.98999999;fill:#3f8ff9;fill-opacity:1;fill-rule:nonzero;stroke:none;stroke-width:0.1;stroke-linecap:butt;stroke-miterlimit:4;stroke-dasharray:none;stroke-dashoffset:0;stroke-opacity:1"
       d="m 180.91177,137.57136 6.70371,4.76316 6.35087,2.11696 11.64327,2.11696 -3.17544,3.17544 -5.11597,0.17641 -9.34991,-2.6462 -7.05653,-4.0575 z"
       id="path8585-2-8"
       inkscape:connector-curvature="0"
       sodipodi:nodetypes="ccccccccc" />
    <path
       style="opacity:0.98999999;fill:#402301;fill-opacity:1;fill-rule:nonzero;stroke:none;stroke-width:0.1;stroke-linecap:butt;stroke-miterlimit:4;stroke-dasharray:none;stroke-dashoffset:0;stroke-opacity:1"
       d="m 213,184.8622 -12,4.5 -11.5,-16 -9.5,-27.5 0,-27.5 2.5,-9 12,-3 -3.18066,18.78162 0.68066,21.71838 6,20 z"
       id="path8202"
       inkscape:connector-curvature="0"
       sodipodi:nodetypes="ccccccccccc" />
    <path
       style="opacity:0.98999999;fill:#402301;fill-opacity:1;fill-rule:nonzero;stroke:none;stroke-width:0.1;stroke-linecap:butt;stroke-miterlimit:4;stroke-dasharray:none;stroke-dashoffset:0;stroke-opacity:1"
       d="M 123.63868,210.9504 202,187.3622 l -2,-2 -77.36132,22.5882 3,2.5 z"
       id="path8204"
       inkscape:connector-curvature="0"
       sodipodi:nodetypes="cccccc" />
    <path
       inkscape:connector-curvature="0"
       id="path8215"
       d="M 112.03205,197.3622 191.5,173.07053 189.4359,170.8622 111,194.0497 l 3.09615,2.76042 z"
       style="opacity:0.98999999;fill:#402301;fill-opacity:1;fill-rule:nonzero;stroke:none;stroke-width:0.1;stroke-linecap:butt;stroke-miterlimit:4;stroke-dasharray:none;stroke-dashoffset:0;stroke-opacity:1" />
    <path
       style="opacity:0.98999999;fill:#402301;fill-opacity:1;fill-rule:nonzero;stroke:none;stroke-width:0.1;stroke-linecap:butt;stroke-miterlimit:4;stroke-dasharray:none;stroke-dashoffset:0;stroke-opacity:1"
       d="M 95.121792,158.8622 186,132.77886 183.75641,130.8622 94,155.9872 l 3.365385,2.39584 z"
       id="path8217"
       inkscape:connector-curvature="0"
       sodipodi:nodetypes="cccccc" />
    <path
       inkscape:connector-curvature="0"
       id="path8219"
       d="M 101.57692,139.8622 188,112.32053 185.84615,110.3622 100.5,136.9247 l 3.23077,2.44792 z"
       style="opacity:0.98999999;fill:#402301;fill-opacity:1;fill-rule:nonzero;stroke:none;stroke-width:0.1;stroke-linecap:butt;stroke-miterlimit:4;stroke-dasharray:none;stroke-dashoffset:0;stroke-opacity:1"
       sodipodi:nodetypes="cccccc" />
    <path
       style="opacity:0.98999999;fill:#402301;fill-opacity:1;fill-rule:nonzero;stroke:none;stroke-width:0.1;stroke-linecap:butt;stroke-miterlimit:4;stroke-dasharray:none;stroke-dashoffset:0;stroke-opacity:1"
       d="m 101.87179,179.3622 86.37821,-24.58334 -2.24359,-1.91666 -85.25641,23.625 3.36539,2.39584 z"
       id="path8217-7"
       inkscape:connector-curvature="0"
       sodipodi:nodetypes="cccccc" />
    <ellipse
       style="opacity:0.98999999;fill:#9f0e16;fill-opacity:1;fill-rule:nonzero;stroke:none;stroke-width:0.1;stroke-linecap:butt;stroke-miterlimit:4;stroke-dasharray:none;stroke-dashoffset:0;stroke-opacity:1"
       id="path8151-3-6"
       cx="447.80716"
       cy="228.7852"
       rx="10.010004"
       ry="13.747456"
       transform="matrix(0.89671225,0.44261399,-0.43186292,0.90193926,0,0)" />
    <ellipse
       style="opacity:0.98999999;fill:#103dd0;fill-opacity:1;fill-rule:nonzero;stroke:none;stroke-width:0.1;stroke-linecap:butt;stroke-miterlimit:4;stroke-dasharray:none;stroke-dashoffset:0;stroke-opacity:1"
       id="path8151-3"
       cx="155.14935"
       cy="474.99155"
       rx="10.010004"
       ry="13.747456"
       transform="matrix(0.96167243,-0.2742009,0.2856773,0.95832587,0,0)" />
    <path
       style="opacity:0.98999999;fill:#580207;fill-opacity:1;fill-rule:nonzero;stroke:none;stroke-width:0.1;stroke-linecap:butt;stroke-miterlimit:4;stroke-dasharray:none;stroke-dashoffset:0;stroke-opacity:1"
       d="m 313.86288,406.57105 c -0.98239,3.73241 -2.98552,7.03941 -5.42996,9.36884 -2.44443,2.32943 -5.33021,3.6813 -8.07791,3.50347 -2.74768,-0.17783 -4.83706,-1.8517 -5.99391,-4.41422 4.95958,0.58268 6.86079,0.79873 10.40204,-0.7991 6.99409,-3.15582 7.74687,-10.24989 7.74687,-10.24989 -0.39172,-3.30467 1.68366,-7.62346 -4.31025,-12.03765 2.74769,0.17783 4.10749,2.31997 5.26437,4.88244 1.15686,2.5625 1.38118,6.01366 0.39878,9.74608 z"
       id="path8117-6-5-5-2"
       inkscape:connector-curvature="0"
       sodipodi:nodetypes="ssscsscss" />
    <path
       style="opacity:0.98999999;fill:#0c236f;fill-opacity:1;fill-rule:nonzero;stroke:none;stroke-width:0.1;stroke-linecap:butt;stroke-miterlimit:4;stroke-dasharray:none;stroke-dashoffset:0;stroke-opacity:1"
       d="m 294.48445,406.68526 c 1.77849,3.42534 2.51496,7.22091 2.26797,10.58848 -0.247,3.36756 -1.47748,6.30715 -3.63288,8.02054 -2.15539,1.71338 -7.93184,1.04837 -10.50984,-0.0735 5.7218,-0.62233 8.51732,-0.91117 10.06832,-4.47318 3.06325,-7.03513 -0.93588,-15.07361 -0.93588,-15.07361 -2.50944,-2.18564 -3.87182,-6.77945 -11.27744,-6.02518 2.1554,-1.71339 4.60149,-1.03925 7.17949,0.0826 2.578,1.1219 5.06177,3.52849 6.84026,6.95385 z"
       id="path8117-6-5-5"
       inkscape:connector-curvature="0"
       sodipodi:nodetypes="csscsscssc" />
    <path
       style="opacity:0.98999999;fill:#580207;fill-opacity:1;fill-rule:nonzero;stroke:none;stroke-width:0.1;stroke-linecap:butt;stroke-miterlimit:4;stroke-dasharray:none;stroke-dashoffset:0;stroke-opacity:1"
       d="m 256.70059,359.95907 2.95059,1.77035 -5.50776,8.55668 -9.73692,5.99952 -9.73691,2.95058 -5.90117,1.08188 -0.0983,-5.21269 7.37645,-1.672 9.93363,-5.01599 6.39292,-4.32752 z"
       id="path8287"
       inkscape:connector-curvature="0" />
    <ellipse
       style="opacity:0.98999999;fill:#580207;fill-opacity:1;fill-rule:nonzero;stroke:none;stroke-width:0.1;stroke-linecap:butt;stroke-miterlimit:4;stroke-dasharray:none;stroke-dashoffset:0;stroke-opacity:1"
       id="path8293"
       cx="251.83215"
       cy="386.17007"
       rx="4.3766961"
       ry="4.6717544" />
    <ellipse
       style="opacity:0.98999999;fill:#580207;fill-opacity:1;fill-rule:nonzero;stroke:none;stroke-width:0.1;stroke-linecap:butt;stroke-miterlimit:4;stroke-dasharray:none;stroke-dashoffset:0;stroke-opacity:1"
       id="path8295"
       cx="259.55283"
       cy="386.26843"
       rx="4.6225777"
       ry="1.3277617" />
    <ellipse
       style="opacity:0.98999999;fill:#580207;fill-opacity:1;fill-rule:nonzero;stroke:none;stroke-width:0.1;stroke-linecap:butt;stroke-miterlimit:4;stroke-dasharray:none;stroke-dashoffset:0;stroke-opacity:1"
       id="path8295-9"
       cx="-151.81583"
       cy="432.13391"
       rx="4.6225777"
       ry="1.3277617"
       transform="matrix(0.5962307,-0.80281315,0.80281315,0.5962307,0,0)" />
    <ellipse
       style="opacity:0.98999999;fill:#580207;fill-opacity:1;fill-rule:nonzero;stroke:none;stroke-width:0.1;stroke-linecap:butt;stroke-miterlimit:4;stroke-dasharray:none;stroke-dashoffset:0;stroke-opacity:1"
       id="path8295-1"
       cx="344.64291"
       cy="296.71017"
       rx="4.6225777"
       ry="1.3277617"
       transform="matrix(0.95801056,0.28673292,-0.28673292,0.95801056,0,0)" />
    <ellipse
       style="opacity:0.98999999;fill:#580207;fill-opacity:1;fill-rule:nonzero;stroke:none;stroke-width:0.1;stroke-linecap:butt;stroke-miterlimit:4;stroke-dasharray:none;stroke-dashoffset:0;stroke-opacity:1"
       id="path8295-1-2"
       cx="453.91797"
       cy="-11.125699"
       rx="4.6225777"
       ry="1.3277617"
       transform="matrix(0.52626287,0.85032193,-0.85032193,0.52626287,0,0)" />
    <ellipse
       style="opacity:0.98999999;fill:#580207;fill-opacity:1;fill-rule:nonzero;stroke:none;stroke-width:0.1;stroke-linecap:butt;stroke-miterlimit:4;stroke-dasharray:none;stroke-dashoffset:0;stroke-opacity:1"
       id="path8295-1-7"
       cx="225.8226"
       cy="398.19653"
       rx="4.6225777"
       ry="1.3277617"
       transform="matrix(0.99886844,-0.0475589,0.0475589,0.99886844,0,0)" />
    <ellipse
       style="opacity:0.98999999;fill:#580207;fill-opacity:1;fill-rule:nonzero;stroke:none;stroke-width:0.1;stroke-linecap:butt;stroke-miterlimit:4;stroke-dasharray:none;stroke-dashoffset:0;stroke-opacity:1"
       id="path8295-1-7-0"
       cx="45.809895"
       cy="458.90765"
       rx="4.6225777"
       ry="1.3277617"
       transform="matrix(0.89546949,-0.44512289,0.44512289,0.89546949,0,0)" />
    <ellipse
       style="opacity:0.98999999;fill:#580207;fill-opacity:1;fill-rule:nonzero;stroke:none;stroke-width:0.1;stroke-linecap:butt;stroke-miterlimit:4;stroke-dasharray:none;stroke-dashoffset:0;stroke-opacity:1"
       id="path8295-6"
       cx="149.6339"
       cy="437.48535"
       rx="4.6225777"
       ry="1.3277617"
       transform="matrix(0.96484301,-0.26282686,0.26282686,0.96484301,0,0)" />
    <ellipse
       style="opacity:0.98999999;fill:#580207;fill-opacity:1;fill-rule:nonzero;stroke:none;stroke-width:0.1;stroke-linecap:butt;stroke-miterlimit:4;stroke-dasharray:none;stroke-dashoffset:0;stroke-opacity:1"
       id="path8295-2"
       cx="-368.93723"
       cy="265.75912"
       rx="4.6225777"
       ry="1.3277617"
       transform="matrix(0.03711925,-0.99931084,0.99931084,0.03711925,0,0)" />
    <ellipse
       style="opacity:0.98999999;fill:#580207;fill-opacity:1;fill-rule:nonzero;stroke:none;stroke-width:0.1;stroke-linecap:butt;stroke-miterlimit:4;stroke-dasharray:none;stroke-dashoffset:0;stroke-opacity:1"
       id="path8295-61"
       cx="393.91254"
       cy="252.44951"
       rx="4.6225777"
       ry="1.3277617"
       transform="matrix(0.91539749,0.40255115,-0.40255115,0.91539749,0,0)" />
    <ellipse
       style="opacity:0.98999999;fill:#580207;fill-opacity:1;fill-rule:nonzero;stroke:none;stroke-width:0.1;stroke-linecap:butt;stroke-miterlimit:4;stroke-dasharray:none;stroke-dashoffset:0;stroke-opacity:1"
       id="path8295-61-8"
       cx="266.44226"
       cy="381.21231"
       rx="4.6225777"
       ry="1.3277617"
       transform="matrix(-0.38551174,0.92270293,0.92270293,0.38551174,0,0)" />
    <ellipse
       style="opacity:0.98999999;fill:#580207;fill-opacity:1;fill-rule:nonzero;stroke:none;stroke-width:0.1;stroke-linecap:butt;stroke-miterlimit:4;stroke-dasharray:none;stroke-dashoffset:0;stroke-opacity:1"
       id="path8295-61-8-7"
       cx="381.25226"
       cy="270.08688"
       rx="4.6225777"
       ry="1.3277617"
       transform="matrix(-0.0457213,0.99895423,0.99895423,0.0457213,0,0)" />
    <ellipse
       style="opacity:0.98999999;fill:#580207;fill-opacity:1;fill-rule:nonzero;stroke:none;stroke-width:0.1;stroke-linecap:butt;stroke-miterlimit:4;stroke-dasharray:none;stroke-dashoffset:0;stroke-opacity:1"
       id="path8295-61-8-7-9"
       cx="456.4469"
       cy="104.4503"
       rx="4.6225777"
       ry="1.3277617"
       transform="matrix(0.3452564,0.9385084,0.9385084,-0.3452564,0,0)" />
    <path
       style="opacity:0.98999999;fill:#d05d5d;fill-opacity:1;fill-rule:nonzero;stroke:none;stroke-width:0.1;stroke-linecap:butt;stroke-miterlimit:4;stroke-dasharray:none;stroke-dashoffset:0;stroke-opacity:1"
       d="m 286.94474,361.04924 -6.30871,12.61743 -9.76834,10.58236 -22.38576,5.29117 8.95431,-7.32624 13.22795,-4.07014 12.61743,-14.6525 z"
       id="path8526"
       inkscape:connector-curvature="0"
       sodipodi:nodetypes="cccccccc" />
    <path
       style="opacity:0.98999999;fill:#d05d5d;fill-opacity:1;fill-rule:nonzero;stroke:none;stroke-width:0.1;stroke-linecap:butt;stroke-miterlimit:4;stroke-dasharray:none;stroke-dashoffset:0;stroke-opacity:1"
       d="m 285.11318,360.84573 -7.32625,0.20351 -7.93677,3.25611 1.22104,-9.97184 5.08767,-0.81403 6.71573,3.05261 2.64559,2.23857 z"
       id="path8528"
       inkscape:connector-curvature="0" />
    <path
       style="opacity:0.98999999;fill:#d05d5d;fill-opacity:1;fill-rule:nonzero;stroke:none;stroke-width:0.1;stroke-linecap:butt;stroke-miterlimit:4;stroke-dasharray:none;stroke-dashoffset:0;stroke-opacity:1"
       d="m 287.55526,357.99664 1.42455,2.44208 7.12274,-1.83156 8.9543,1.42455 4.68066,3.25611 0.81403,-10.17535 -7.12274,-1.22104 -8.14028,1.62805 z"
       id="path8530"
       inkscape:connector-curvature="0" />
    <path
       style="opacity:0.98999999;fill:#d05d5d;fill-opacity:1;fill-rule:nonzero;stroke:none;stroke-width:0.1;stroke-linecap:butt;stroke-miterlimit:4;stroke-dasharray:none;stroke-dashoffset:0;stroke-opacity:1"
       d="m 288.7763,362.8808 4.88417,13.02444 6.30871,9.36132 8.7508,4.07014 6.71573,0 8.34378,-5.49469 -12.00691,0.81403 -9.97184,-3.66312 -8.14027,-11.8034 -2.03507,-5.08768 z"
       id="path8532"
       inkscape:connector-curvature="0" />
    <path
       transform="matrix(0.66734005,0,0,0.71535769,80.963486,40.092837)"
       style="opacity:0.98999999;fill:#ad6700;fill-opacity:1;fill-rule:nonzero;stroke:none;stroke-width:0.1;stroke-linecap:butt;stroke-miterlimit:4;stroke-dasharray:none;stroke-dashoffset:0;stroke-opacity:1"
       inkscape:transform-center-x="-0.18163187"
       inkscape:transform-center-y="0.56689794"
       d="m 202.57577,173.79987 -3.76011,-6.29725 -7.31919,-0.47251 4.8271,-5.52204 -3.92719,-4.88749 5.95037,0.91157 5.40602,1.99876 3.83457,3.35899 3.00008,4.93098 -5.30051,-0.83596 z"
       id="path8552-9-2"
       inkscape:connector-curvature="0"
       sodipodi:nodetypes="ccccccccccc" />
  </g>
</svg>
