<?xml version="1.0" encoding="UTF-8" standalone="no"?>
<!-- Created with Inkscape (http://www.inkscape.org/) -->

<svg
   xmlns:dc="http://purl.org/dc/elements/1.1/"
   xmlns:cc="http://creativecommons.org/ns#"
   xmlns:rdf="http://www.w3.org/1999/02/22-rdf-syntax-ns#"
   xmlns:svg="http://www.w3.org/2000/svg"
   xmlns="http://www.w3.org/2000/svg"
   xmlns:sodipodi="http://sodipodi.sourceforge.net/DTD/sodipodi-0.dtd"
   xmlns:inkscape="http://www.inkscape.org/namespaces/inkscape"
   width="210mm"
   height="297mm"
   viewBox="0 0 744.09448819 1052.3622047"
   id="svg2"
   version="1.1"
   inkscape:version="0.91 r13725"
   sodipodi:docname="image_2.svg">
  <defs
     id="defs4" />
  <sodipodi:namedview
     id="base"
     pagecolor="#ffffff"
     bordercolor="#666666"
     borderopacity="1.0"
     inkscape:pageopacity="0.0"
     inkscape:pageshadow="2"
     inkscape:zoom="2.2828835"
     inkscape:cx="49.545235"
     inkscape:cy="734.26586"
     inkscape:document-units="px"
     inkscape:current-layer="layer1"
     showgrid="false"
     inkscape:window-width="1600"
     inkscape:window-height="876"
     inkscape:window-x="0"
     inkscape:window-y="204"
     inkscape:window-maximized="1" />
  <metadata
     id="metadata7">
    <rdf:RDF>
      <cc:Work
         rdf:about="">
        <dc:format>image/svg+xml</dc:format>
        <dc:type
           rdf:resource="http://purl.org/dc/dcmitype/StillImage" />
        <dc:title></dc:title>
      </cc:Work>
    </rdf:RDF>
  </metadata>
  <g
     inkscape:label="Calque 1"
     inkscape:groupmode="layer"
     id="layer1">
    <path
       style="opacity:1;fill:#eedc45;fill-opacity:1;fill-rule:nonzero;stroke:none;stroke-width:0.80000001;stroke-linecap:butt;stroke-miterlimit:4;stroke-dasharray:3.2, 0.80000000000000004;stroke-dashoffset:0;stroke-opacity:1"
       d="m -88.484584,154.81313 21.902125,24.53038 -31.53906,-1.31413 34.167315,28.47276 -49.498806,18.83583 37.233616,2.19021 -65.268336,69.21072 70.086803,-30.66298 -34.167313,59.13574 29.348846,-15.76953 -2.190213,49.93685 L -35.0434,309.00409 8.3228074,308.128 34.605357,330.90621 34.167315,314.2606 84.104159,320.83124 43.366207,291.92043 c 0,0 57.383563,0.87609 54.755312,0.87609 -2.628255,0 -48.184674,-25.84451 -48.184674,-25.84451 l 42.490122,-17.08366 -55.193355,-1.31413 47.30859,-32.85318 c 0,0 -39.423825,-2.62826 -37.671655,-2.19022 1.75217,0.43805 42.05208,-49.4988 42.05208,-49.4988 L 37.671655,177.1533 48.622717,154.37509 14.893445,168.39245 9.6369349,148.24249 -3.0662975,166.20223 -35.919485,147.80445 l 5.25651,21.02604 z"
       id="path8454"
       inkscape:connector-curvature="0" />
    <path
       style="opacity:0.95800003;fill:#1daa1d;fill-opacity:1;fill-rule:nonzero;stroke:none;stroke-width:0.1;stroke-linecap:butt;stroke-miterlimit:4;stroke-dasharray:none;stroke-dashoffset:0;stroke-opacity:1"
       d="m 106.88237,268.26614 25.40646,-11.38911 54.75532,-20.14995 41.61403,-7.88477 -1.31412,176.09308 -122.21386,-56.06943 z"
       id="path8252"
       inkscape:connector-curvature="0"
       sodipodi:nodetypes="ccccccc" />
    <path
       style="opacity:0.205;fill:#00ffff;fill-opacity:1;fill-rule:nonzero;stroke:none;stroke-width:0.1;stroke-linecap:butt;stroke-miterlimit:4;stroke-dasharray:none;stroke-dashoffset:0;stroke-opacity:1"
       d="m 109.94867,153.93704 0,191.86262 114.32909,51.68901 0.43804,-246.17988 z"
       id="path8248"
       inkscape:connector-curvature="0" />
    <path
       style="opacity:1;fill:#5a2b0c;fill-opacity:1;fill-rule:nonzero;stroke:none;stroke-width:0.80000001;stroke-linecap:butt;stroke-miterlimit:4;stroke-dasharray:3.2, 0.80000000000000004;stroke-dashoffset:0;stroke-opacity:1"
       d="m 147.18228,213.51082 -5.25651,10.51302 -0.87609,10.51302 0,26.7206 0.43805,17.5217 1.75217,2.62825 -4.81847,3.50434 -6.57064,0.43804 0.87609,-3.06629 3.06629,-13.57932 -0.87608,-38.1097 -2.19021,-10.95106 -3.94239,-16.64562 4.38043,4.38043 2.19021,11.3891 2.62826,-0.43804 4.81846,-10.07498 z"
       id="path8293"
       inkscape:connector-curvature="0" />
    <path
       style="opacity:1;fill:#0c5a2b;fill-opacity:1;fill-rule:nonzero;stroke:none;stroke-width:0.80000001;stroke-linecap:butt;stroke-miterlimit:4;stroke-dasharray:3.2, 0.80000000000000004;stroke-dashoffset:0;stroke-opacity:1"
       d="m 169.52245,153.06096 c 1.75217,0 2.62825,10.51302 2.62825,10.51302 l -2.62825,4.38042 -6.1326,5.25651 3.94238,1.75217 2.62826,9.1989 -1.31413,10.51302 -5.69455,7.44672 -8.32281,3.50434 -3.0663,9.63693 c 0,0 -5.25651,1.31413 -7.44672,1.31413 -2.19021,0 -14.89344,-3.94238 -14.89344,-3.94238 l -1.75217,3.50434 -7.88477,1.31413 -7.88476,-6.57064 1.75217,-7.44672 3.50434,-5.25651 -5.25651,0 -5.69456,-7.00868 -2.19021,-24.09234 2.19021,-15.33149 z"
       id="path8291"
       inkscape:connector-curvature="0" />
    <path
       style="opacity:0.95800003;fill:#bc5d20;fill-opacity:1;fill-rule:nonzero;stroke:none;stroke-width:0.1;stroke-linecap:butt;stroke-miterlimit:4;stroke-dasharray:none;stroke-dashoffset:0;stroke-opacity:1"
       d="m 110.82475,153.93704 -7.88477,-0.87608 10e-6,199.74738 128.34645,56.94552 2.62825,-260.63528 -10.07497,1.31413 -1e-5,245.3038 -60.44986,-26.28256 0.87609,-216.83103 -9.1989,0.43804 0.43805,212.88865 -45.99446,-17.95974 z"
       id="path8250"
       inkscape:connector-curvature="0"
       sodipodi:nodetypes="ccccccccccccc" />
    <ellipse
       style="opacity:1;fill:#b66022;fill-opacity:1;fill-rule:nonzero;stroke:none;stroke-width:0.1;stroke-linecap:butt;stroke-miterlimit:4;stroke-dasharray:none;stroke-dashoffset:0;stroke-opacity:1"
       id="path8254"
       cx="210.04138"
       cy="248.55423"
       rx="1.9711913"
       ry="2.1902125" />
    <path
       style="opacity:1;fill:#111926;fill-opacity:1;fill-rule:nonzero;stroke:none;stroke-width:0.1;stroke-linecap:butt;stroke-miterlimit:4;stroke-dasharray:none;stroke-dashoffset:0;stroke-opacity:1"
       d="m 30.662974,388.28978 22.340168,93.30305 -31.53906,0 -14.4554021,-54.75531 -9.1988924,53.87923 -29.3488475,0 0.876085,-70.96289 0,-25.40646 z"
       id="path8260"
       inkscape:connector-curvature="0"
       sodipodi:nodetypes="ccccccccc" />
    <path
       style="opacity:1;fill:#e99481;fill-opacity:1;fill-rule:nonzero;stroke:none;stroke-width:0.1;stroke-linecap:butt;stroke-miterlimit:4;stroke-dasharray:none;stroke-dashoffset:0;stroke-opacity:1"
       d="m 95.493264,258.6292 30.224936,-4.38042 -0.43805,2.62825 -5.69455,2.62826 -14.01736,2.19021 0.43804,2.62825 7.00868,3.94239 4.38043,7.88476 -3.0663,3.0663 -3.0663,-0.43804 -2.19021,-4.81847 -6.13259,-2.62826 -10.074981,0 z"
       id="path8262"
       inkscape:connector-curvature="0" />
    <path
       style="opacity:1;fill:#e99481;fill-opacity:1;fill-rule:nonzero;stroke:none;stroke-width:0.80000001;stroke-linecap:butt;stroke-miterlimit:4;stroke-dasharray:3.2, 0.80000000000000004;stroke-dashoffset:0;stroke-opacity:1"
       d="m -68.772672,321.26928 -5.694552,-18.83583 -2.628255,-8.32281 -0.438043,-10.95106 3.50434,-0.87608 1.314128,9.19889 3.50434,-13.14128 7.884764,-9.63693 0.438043,5.25651 -5.694552,8.32281 7.008679,-6.57064 0.438043,4.81847 -7.884765,10.51302 7.00868,-5.25651 0.876085,3.94238 -3.066297,3.50434 -4.380425,5.69455 1.75217,5.25651 -2.190213,3.0663 4.818468,9.19889 z"
       id="path8322"
       inkscape:connector-curvature="0" />
    <path
       style="opacity:1;fill:#5a300c;fill-opacity:1;fill-rule:nonzero;stroke:none;stroke-width:0.1;stroke-linecap:butt;stroke-miterlimit:4;stroke-dasharray:none;stroke-dashoffset:0;stroke-opacity:1"
       d="m -26.720592,248.99227 -7.446723,-19.71192 -0.438042,-19.71191 -3.066298,4.81847 -0.438042,5.69455 -0.438043,-12.70323 3.942383,-6.57064 4.380425,-1.75217 -6.132595,-3.0663 9.636935,2.19022 -1.314128,-8.76085 3.942383,-5.25651 6.132595,-1.31413 -7.00868,3.94238 -0.876085,7.00868 6.570637,-5.25651 16.2075725,-0.43804 12.2651899,4.38042 7.4467226,0.43805 -8.7608501,2.62825 9.1988921,0.87609 -6.132595,4.81846 5.694553,2.19022 1.75217,9.19889 -7.884765,14.4554 -10.9510625,-16.64561 -18.3977845,4.38042 -1.75217,28.47276 -6.132595,7.00868 z"
       id="path8281"
       inkscape:connector-curvature="0" />
    <path
       style="opacity:1;fill:#e99481;fill-opacity:1;fill-rule:nonzero;stroke:none;stroke-width:0.1;stroke-linecap:butt;stroke-miterlimit:4;stroke-dasharray:none;stroke-dashoffset:0;stroke-opacity:1"
       d="m 1.7521697,200.36954 -27.5966767,4.38043 c 0,0 -8.76085,22.34016 -2.628255,33.72927 6.132595,11.3891 17.083657,29.78689 17.083657,29.78689 l 15.7695297,-3.94238 c 0,0 -3.066297,-7.00868 1.75217,-17.08366 4.8184683,-10.07498 7.4467233,-35.91949 5.6945533,-39.86187 -1.75217,-3.94238 -10.0749783,-7.00868 -10.0749783,-7.00868 z"
       id="path8256"
       inkscape:connector-curvature="0" />
    <ellipse
       style="opacity:1;fill:#ffffff;fill-opacity:1;fill-rule:nonzero;stroke:none;stroke-width:0.1;stroke-linecap:butt;stroke-miterlimit:4;stroke-dasharray:none;stroke-dashoffset:0;stroke-opacity:1"
       id="path8264"
       cx="-8.5418282"
       cy="222.70972"
       rx="4.1614037"
       ry="6.1325951" />
    <ellipse
       style="opacity:1;fill:#ffffff;fill-opacity:1;fill-rule:nonzero;stroke:none;stroke-width:0.1;stroke-linecap:butt;stroke-miterlimit:4;stroke-dasharray:none;stroke-dashoffset:0;stroke-opacity:1"
       id="path8264-5"
       cx="1.314128"
       cy="220.95753"
       rx="4.1614037"
       ry="6.1325951" />
    <path
       style="opacity:1;fill:none;fill-opacity:1;fill-rule:nonzero;stroke:#e5a82c;stroke-width:0.80000001;stroke-linecap:butt;stroke-miterlimit:4;stroke-dasharray:3.2, 0.8;stroke-dashoffset:0;stroke-opacity:1"
       d="m 13.579318,397.05063 0,21.90212 -7.0086806,5.25651 -1.7521699,-31.53905"
       id="path8283"
       inkscape:connector-curvature="0" />
    <path
       style="opacity:1;fill:none;fill-opacity:1;fill-rule:nonzero;stroke:#e5a82c;stroke-width:0.80000001;stroke-linecap:butt;stroke-miterlimit:4;stroke-dasharray:3.2, 0.8;stroke-dashoffset:0;stroke-opacity:1"
       d="m -12.26519,392.67021 -3.50434,35.91948 -8.322807,3.94238 -6.570638,-1.31413"
       id="path8285"
       inkscape:connector-curvature="0" />
    <path
       style="opacity:1;fill:#2c75e5;fill-opacity:1;fill-rule:nonzero;stroke:none;stroke-width:0.1;stroke-linecap:butt;stroke-miterlimit:4;stroke-dasharray:none;stroke-dashoffset:0;stroke-opacity:1"
       d="m 17.5217,261.25746 82.79003,-4.38042 0.87609,7.88476 -3.066302,11.82715 -40.737951,4.38042 -25.844507,5.69455 c 0,0 -3.971381,39.18051 -3.50434,41.61404 l 8.322807,43.36621 6.132595,16.64561 c 0,0 -23.654295,11.38911 -31.53906,11.82715 -7.8847648,0.43804 -46.432504,-6.57064 -46.432504,-6.57064 l 0,-72.71505 -7.446723,24.09234 -3.50434,17.95974 -12.26519,6.13259 c 0,0 -9.636935,-22.34016 -8.322807,-25.40646 1.314127,-3.0663 -3.942383,-24.53038 -3.942383,-24.53038 l 3.50434,-1.75217 5.25651,-13.57932 3.066298,17.5217 14.455402,-35.0434 8.322808,-19.27387 12.703232,-6.57064 23.21625224,-1.31412 z"
       id="path8258"
       inkscape:connector-curvature="0"
       sodipodi:nodetypes="ccccccsccscccccsccccccccc" />
    <path
       style="opacity:1;fill:none;fill-opacity:1;fill-rule:nonzero;stroke:#e5a82c;stroke-width:0.80000001;stroke-linecap:butt;stroke-miterlimit:4;stroke-dasharray:3.2, 0.8;stroke-dashoffset:0;stroke-opacity:1"
       d="m 25.406465,394.86042 6.132595,25.8445 4.818467,0.43805 2.190213,-1.31413"
       id="path8287"
       inkscape:connector-curvature="0" />
    <path
       style="opacity:1;fill:none;fill-opacity:1;fill-rule:nonzero;stroke:#e5a82c;stroke-width:0.80000001;stroke-linecap:butt;stroke-miterlimit:4;stroke-dasharray:3.2, 0.8;stroke-dashoffset:0;stroke-opacity:1"
       d="m 14.893445,425.96143 13.579317,55.6314"
       id="path8289"
       inkscape:connector-curvature="0" />
    <path
       style="opacity:1;fill:#5a2b0c;fill-opacity:1;fill-rule:nonzero;stroke:none;stroke-width:0.80000001;stroke-linecap:butt;stroke-miterlimit:4;stroke-dasharray:3.2, 0.8;stroke-dashoffset:0;stroke-opacity:1"
       d="m -24.53038,234.97491 14.01736,18.83582 7.00868,3.94239 0,-5.69456 2.1902125,-0.43804 2.19021249,4.38043 3.94238251,-1.31413 0,-6.1326 3.0662974,-10.07497 -1.7521699,12.70323 1.3141274,8.76085 -1.3141274,2.62825 -7.4467225,2.62826 -12.2651895,-0.87609 -8.76085,-15.33148 -5.25651,-12.26519 z"
       id="path8295"
       inkscape:connector-curvature="0" />
    <path
       style="opacity:1;fill:#5a2b0c;fill-opacity:1;fill-rule:nonzero;stroke:none;stroke-width:0.80000001;stroke-linecap:butt;stroke-miterlimit:4;stroke-dasharray:3.2, 0.8;stroke-dashoffset:0;stroke-opacity:1"
       d="m -2.1902125,234.09882 -9.1988925,0.43804 -4.380425,2.62826 -0.876085,9.19889 4.380425,-6.13259 8.76085,-2.62826 2.1902125,-0.43804 5.25651,0 2.1902125,4.38042 0.4380424,3.94239 -0.4380424,-9.1989 -3.0662975,-2.62825 z"
       id="path8297"
       inkscape:connector-curvature="0" />
    <path
       style="opacity:1;fill:#5a2b0c;fill-opacity:1;fill-rule:nonzero;stroke:none;stroke-width:0.80000001;stroke-linecap:butt;stroke-miterlimit:4;stroke-dasharray:3.2, 0.8;stroke-dashoffset:0;stroke-opacity:1"
       d="m -16.207572,213.07278 5.694552,-4.38042 6.132595,-1.75217 -7.00868,-0.87609 -3.942382,3.0663 z"
       id="path8299"
       inkscape:connector-curvature="0" />
    <path
       style="opacity:1;fill:#5a2b0c;fill-opacity:1;fill-rule:nonzero;stroke:none;stroke-width:0.80000001;stroke-linecap:butt;stroke-miterlimit:4;stroke-dasharray:3.2, 0.8;stroke-dashoffset:0;stroke-opacity:1"
       d="m -0.4380425,209.56844 6.132595,-1.31413 4.3804245,3.0663 -3.0662971,-5.25651 -4.8184674,0 z"
       id="path8301"
       inkscape:connector-curvature="0" />
    <ellipse
       style="opacity:1;fill:#000000;fill-opacity:1;fill-rule:nonzero;stroke:none;stroke-width:0.80000001;stroke-linecap:butt;stroke-miterlimit:4;stroke-dasharray:3.2, 0.80000000000000004;stroke-dashoffset:0;stroke-opacity:1"
       id="path8303"
       cx="-6.7896585"
       cy="223.80482"
       rx="1.5331488"
       ry="2.8472762" />
    <ellipse
       style="opacity:1;fill:#000000;fill-opacity:1;fill-rule:nonzero;stroke:none;stroke-width:0.80000001;stroke-linecap:butt;stroke-miterlimit:4;stroke-dasharray:3.2, 0.80000000000000004;stroke-dashoffset:0;stroke-opacity:1"
       id="path8303-6"
       cx="3.5043416"
       cy="222.70973"
       rx="1.5331488"
       ry="2.8472762" />
    <ellipse
       style="opacity:1;fill:#000000;fill-opacity:1;fill-rule:nonzero;stroke:none;stroke-width:0.80000001;stroke-linecap:butt;stroke-miterlimit:4;stroke-dasharray:3.2, 0.80000000000000004;stroke-dashoffset:0;stroke-opacity:1"
       id="path8320"
       cx="-2.4092338"
       cy="243.73576"
       rx="3.2853186"
       ry="4.380425" />
  </g>
</svg>
