<?xml version="1.0" encoding="UTF-8" standalone="no"?>
<!-- Created with Inkscape (http://www.inkscape.org/) -->

<svg
   xmlns:dc="http://purl.org/dc/elements/1.1/"
   xmlns:cc="http://creativecommons.org/ns#"
   xmlns:rdf="http://www.w3.org/1999/02/22-rdf-syntax-ns#"
   xmlns:svg="http://www.w3.org/2000/svg"
   xmlns="http://www.w3.org/2000/svg"
   xmlns:sodipodi="http://sodipodi.sourceforge.net/DTD/sodipodi-0.dtd"
   xmlns:inkscape="http://www.inkscape.org/namespaces/inkscape"
   width="210mm"
   height="297mm"
   viewBox="0 0 744.09448819 1052.3622047"
   id="svg18421"
   version="1.1"
   inkscape:version="0.91 r13725"
   sodipodi:docname="image_4.svg">
  <defs
     id="defs18423" />
  <sodipodi:namedview
     id="base"
     pagecolor="#ffffff"
     bordercolor="#666666"
     borderopacity="1.0"
     inkscape:pageopacity="0.0"
     inkscape:pageshadow="2"
     inkscape:zoom="0.59449458"
     inkscape:cx="-788.57143"
     inkscape:cy="847.77697"
     inkscape:document-units="px"
     inkscape:current-layer="layer1"
     showgrid="false"
     inkscape:window-width="1920"
     inkscape:window-height="1056"
     inkscape:window-x="1600"
     inkscape:window-y="24"
     inkscape:window-maximized="1" />
  <metadata
     id="metadata18426">
    <rdf:RDF>
      <cc:Work
         rdf:about="">
        <dc:format>image/svg+xml</dc:format>
        <dc:type
           rdf:resource="http://purl.org/dc/dcmitype/StillImage" />
        <dc:title />
      </cc:Work>
    </rdf:RDF>
  </metadata>
  <g
     inkscape:label="Calque 1"
     inkscape:groupmode="layer"
     id="layer1">
    <rect
       style="opacity:1;fill:#73dce1;fill-opacity:1;fill-rule:nonzero;stroke:none;stroke-width:3.4000001;stroke-linecap:butt;stroke-miterlimit:4;stroke-dasharray:13.6, 3.4;stroke-dashoffset:0;stroke-opacity:1"
       id="rect22963"
       width="1811.4286"
       height="1197.1428"
       x="-1551.4286"
       y="-681.92352" />
    <path
       style="opacity:1;fill:#0f752f;fill-opacity:1;fill-rule:nonzero;stroke:none;stroke-width:3.4000001;stroke-linecap:butt;stroke-miterlimit:4;stroke-dasharray:13.6, 3.4;stroke-dashoffset:0;stroke-opacity:1"
       d="M 97.585514,-81.92351 -264.65282,-40.137795 -803.69797,82.005068 -1265.1205,265.21935 c 0,0 -306.1776,192.85713 -288.9281,192.85713 17.2495,0 4.3123,617.14282 4.3123,617.14282 L 257.14287,1062.3622 252.83048,-81.92351 Z"
       id="path22901"
       inkscape:connector-curvature="0" />
    <path
       style="opacity:1;fill:#228d4d;fill-opacity:1;fill-rule:nonzero;stroke:none;stroke-width:0.80000001;stroke-linecap:butt;stroke-miterlimit:4;stroke-dasharray:3.2, 0.8;stroke-dashoffset:0;stroke-opacity:1"
       d="m -993.99325,-683.96961 c 16.69656,0 25.04532,90.51301 25.04532,90.51301 l -25.04532,37.71371 -58.44035,45.25651 37.568,15.0855 25.04625,79.19896 -12.52265,90.51301 -54.2665,64.11336 -79.3118,30.17101 -29.2202,82.97022 c 0,0 -50.0916,11.31415 -70.963,11.31415 -20.8714,0 -141.926,-33.94236 -141.926,-33.94236 l -16.6975,30.171 -75.1379,11.31415 -75.1369,-56.57066 16.6965,-64.11336 33.3951,-45.25651 -50.0916,0 -54.2665,-60.342 -20.8714,-207.42568 20.8714,-131.99817 z"
       id="path8291"
       inkscape:connector-curvature="0" />
    <path
       style="opacity:1;fill:#803c0e;fill-opacity:1;fill-rule:nonzero;stroke:none;stroke-width:0.80000001;stroke-linecap:butt;stroke-miterlimit:4;stroke-dasharray:3.2, 0.8;stroke-dashoffset:0;stroke-opacity:1"
       d="m -1187.3883,-180.65834 -64.2186,93.983828 -9.8622,87.25543978 0,221.77425222 4.9312,145.42573 19.7241,21.81382 -54.2414,29.08514 -73.9654,3.63562 9.8621,-25.44944 34.5171,-112.70495 -9.862,-316.300942 -24.6551,-90.891058 -44.3793,-138.15448 49.3103,36.35648 24.6551,94.52668 29.5862,-3.63563 39.1023,-39.88518 z"
       id="path8293"
       inkscape:connector-curvature="0"
       sodipodi:nodetypes="cccccccccccccccccc" />
    <path
       style="opacity:1;fill:#702d00;fill-opacity:1;fill-rule:nonzero;stroke:none;stroke-width:1.29999995;stroke-linecap:butt;stroke-miterlimit:4;stroke-dasharray:5.2, 1.3;stroke-dashoffset:0;stroke-opacity:1"
       d="m -1310.5308,-127.40354 45.7546,0 47.5848,-48.57827 -40.2641,1.42872 z"
       id="path8526"
       inkscape:connector-curvature="0" />
    <path
       style="opacity:1;fill:#377550;fill-opacity:1;fill-rule:nonzero;stroke:none;stroke-width:1.29999995;stroke-linecap:butt;stroke-miterlimit:4;stroke-dasharray:5.2, 1.3;stroke-dashoffset:0;stroke-opacity:1"
       d="m -1439.1242,-610.03274 -59.2669,65.5462 9.8778,50.98038 54.328,43.69744 133.3506,32.77313 -108.656,-91.03646 29.6334,-94.67782 z"
       id="path8520"
       inkscape:connector-curvature="0"
       sodipodi:nodetypes="cccccccc" />
    <path
       style="opacity:1;fill:#702d00;fill-opacity:1;fill-rule:nonzero;stroke:none;stroke-width:1.29999995;stroke-linecap:butt;stroke-miterlimit:4;stroke-dasharray:5.2, 1.3;stroke-dashoffset:0;stroke-opacity:1"
       d="m -1244.6442,393.46324 -36.6037,22.93976 -75.0376,8.09632 -18.3019,-2.69874 25.6226,-53.97585 16.4717,-91.75896 -1.8302,-314.409182 -42.5385,-160.540988 15.0857,13.45681 25.6226,78.26498 34.7736,71.517948 0,296.867072 -12.8113,113.34927 18.3019,22.93976 z"
       id="path8524"
       inkscape:connector-curvature="0"
       sodipodi:nodetypes="ccccccccccccccc" />
    <path
       style="opacity:1;fill:#377550;fill-opacity:1;fill-rule:nonzero;stroke:none;stroke-width:1.29999995;stroke-linecap:butt;stroke-miterlimit:4;stroke-dasharray:5.2, 1.3;stroke-dashoffset:0;stroke-opacity:1"
       d="m -1562.5969,-658.79148 -44.4502,111.75985 29.6334,123.73414 69.1447,35.92276 49.3892,23.94856 -34.5724,99.78556 29.6335,63.86273 108.656,0 -54.328,71.84562 -83.9615,15.96567 -113.5949,-47.89704 44.4502,-87.81129 34.5723,-35.92284 -88.9003,-3.9914 -54.328,-107.76837 9.8778,-195.57974 39.5113,-115.75125 113.5948,11.97428 z"
       id="path8518"
       inkscape:connector-curvature="0" />
    <path
       style="opacity:0.98999999;fill:#e09b16;fill-opacity:1;fill-rule:nonzero;stroke:none;stroke-width:0.1;stroke-linecap:butt;stroke-miterlimit:4;stroke-dasharray:none;stroke-dashoffset:0;stroke-opacity:1"
       d="m -999.40407,993.90377 16.24859,12.18643 29.7891,-5.4162 18.95669,6.7703 0,10.8324 -39.26744,16.2486 -18.95669,-9.4784 -8.12428,-10.8324 -5.4162,14.8946 -31.1432,-9.4784 4.0622,-24.37288 z"
       id="path8077"
       inkscape:connector-curvature="0" />
    <path
       style="opacity:0.98999999;fill:#de9b16;fill-opacity:1;fill-rule:nonzero;stroke:none;stroke-width:0.1;stroke-linecap:butt;stroke-miterlimit:4;stroke-dasharray:none;stroke-dashoffset:0;stroke-opacity:1"
       d="m -850.45862,958.69848 46.03769,-35.20529 24.37289,-9.47834 9.47835,8.12429 -54.16199,55.51604 -44.68363,14.89454 2.7081,-23.01884 z"
       id="path8075"
       inkscape:connector-curvature="0" />
    <path
       style="opacity:0.98999999;fill:#111926;fill-opacity:1;fill-rule:nonzero;stroke:none;stroke-width:0.1;stroke-linecap:butt;stroke-miterlimit:4;stroke-dasharray:none;stroke-dashoffset:0;stroke-opacity:1"
       d="m -952.01234,683.82642 64.99438,120.51041 51.45389,147.59141 -16.2486,20.31074 -21.66479,8.1243 -104.26182,-227.48034 0,131.34281 -21.66479,121.86445 -36.55933,-6.77023 13.5405,-129.98876 -10.8324,-178.73455 z"
       id="path8073"
       inkscape:connector-curvature="0" />
    <path
       style="opacity:0.98999999;fill:#7c7260;fill-opacity:1;fill-rule:nonzero;stroke:none;stroke-width:0.1;stroke-linecap:butt;stroke-miterlimit:4;stroke-dasharray:none;stroke-dashoffset:0;stroke-opacity:1"
       d="m -1201.1574,866.62311 27.081,-82.59702 -55.5161,-10.8324 -6.7703,90.72133 z"
       id="path8104"
       inkscape:connector-curvature="0" />
    <path
       style="opacity:0.98999999;fill:#7c7260;fill-opacity:1;fill-rule:nonzero;stroke:none;stroke-width:0.1;stroke-linecap:butt;stroke-miterlimit:4;stroke-dasharray:none;stroke-dashoffset:0;stroke-opacity:1"
       d="m -1119.7936,858.6611 -9.7602,-86.37352 -54.9866,13.26087 31.6095,85.30554 z"
       id="path8104-6"
       inkscape:connector-curvature="0" />
    <path
       style="opacity:0.98999999;fill:#e8b8a6;fill-opacity:1;fill-rule:nonzero;stroke:none;stroke-width:0.1;stroke-linecap:butt;stroke-miterlimit:4;stroke-dasharray:none;stroke-dashoffset:0;stroke-opacity:1"
       d="m -1127.5367,299.54714 -31.1279,10.8324 -14.0578,54.162 11.0454,28.16422 -1.0041,42.24635 20.0825,1.08324 14.149,-37.10097 29.0741,-0.54162 12.0039,-21.9356 4.0165,-71.49382 -27.1114,-15.16536 -21.0867,8.66592 z"
       id="path8081-7"
       inkscape:connector-curvature="0"
       sodipodi:nodetypes="ccccccccccccc" />
    <path
       style="opacity:0.98999999;fill:#c46d05;fill-opacity:1;fill-rule:nonzero;stroke:none;stroke-width:0.1;stroke-linecap:butt;stroke-miterlimit:4;stroke-dasharray:none;stroke-dashoffset:0;stroke-opacity:1"
       d="m -1140.2252,406.24625 -41.9755,5.4162 -27.0811,69.05653 -8.1243,181.44264 -23.0188,116.44827 37.9134,23.01884 69.0565,1.35405 35.2053,-9.47834 -14.8945,-135.40496 5.4162,-136.75902 13.5405,18.9567 16.2486,-33.85124 -28.4351,-83.95108 z"
       id="path8085"
       inkscape:connector-curvature="0" />
    <path
       style="opacity:0.98999999;fill:#541d00;fill-opacity:1;fill-rule:nonzero;stroke:none;stroke-width:0.1;stroke-linecap:butt;stroke-miterlimit:4;stroke-dasharray:none;stroke-dashoffset:0;stroke-opacity:1"
       d="m -1146.9955,406.24625 44.6837,16.24859 36.5593,82.59703 -25.7269,37.91339 -17.6027,-16.24859 1.3541,41.97553 6.7702,79.88893 -60.9322,1.35405 -58.2242,-13.5405 12.1866,-158.4238 z"
       id="path8140"
       inkscape:connector-curvature="0"
       sodipodi:nodetypes="ccccccccccc" />
    <path
       style="opacity:0.98999999;fill:#6f3620;fill-opacity:1;fill-rule:nonzero;stroke:none;stroke-width:0.1;stroke-linecap:butt;stroke-miterlimit:4;stroke-dasharray:none;stroke-dashoffset:0;stroke-opacity:1"
       d="m -952.01234,426.557 -59.57816,-1.35405 -35.2053,10.83239 -59.5782,128.63471 -17.6026,13.5405 -86.6592,-6.77025 1.354,36.55934 93.4295,17.60264 43.3295,-39.26743 20.3108,-35.20529 -10.8324,144.8833 35.2053,16.2486 81.24296,-4.06215 46.03769,-16.2486 -13.5405,-121.86446 -6.77024,-77.18083 40.62148,106.96992 40.62149,56.87009 37.91339,-13.5405 -48.74579,-64.99438 -47.39174,-143.52926 z"
       id="path8079"
       inkscape:connector-curvature="0"
       sodipodi:nodetypes="cccccccccccccccccccccc" />
    <path
       style="opacity:0.98999999;fill:#e8b8a6;fill-opacity:1;fill-rule:nonzero;stroke:none;stroke-width:0.1;stroke-linecap:butt;stroke-miterlimit:4;stroke-dasharray:none;stroke-dashoffset:0;stroke-opacity:1"
       d="m -947.38727,284.74287 -34.901,12.43719 -15.76175,62.18599 12.38423,32.33671 -1.12584,48.50506 22.51678,1.24372 6.75503,-28.60556 37.15269,-3.73115 18.01343,-36.06787 4.50335,-82.08549 -30.39765,-17.41208 -23.64262,9.94976 z"
       id="path8081"
       inkscape:connector-curvature="0" />
    <path
       style="opacity:0.98999999;fill:#ffd26b;fill-opacity:1;fill-rule:nonzero;stroke:none;stroke-width:0.1;stroke-linecap:butt;stroke-miterlimit:4;stroke-dasharray:none;stroke-dashoffset:0;stroke-opacity:1"
       d="m -804.42093,664.86972 -27.08099,12.18645 -16.24859,60.93223 -12.18645,27.08099 -20.31075,18.9567 25.72694,74.47272 52.80794,0 55.51603,-35.20529 2.7081,-79.88892 -24.37289,1.35405 -4.06215,-54.16199 z"
       id="path8083"
       inkscape:connector-curvature="0" />
    <path
       style="opacity:0.98999999;fill:#6e2600;fill-opacity:1;fill-rule:nonzero;stroke:none;stroke-width:0.1;stroke-linecap:butt;stroke-miterlimit:4;stroke-dasharray:none;stroke-dashoffset:0;stroke-opacity:1"
       d="m -1121.2685,839.54212 -25.727,10.83239 -10.8323,4.06216 31.1431,129.98875 9.4783,39.26748 12.1865,-1.3541 -4.0622,-37.91338 31.1432,18.95668 44.6836,-1.354 -6.7703,-20.31078 -52.8079,-14.89454 z"
       id="path8087"
       inkscape:connector-curvature="0" />
    <path
       style="opacity:0.98999999;fill:#6e2600;fill-opacity:1;fill-rule:nonzero;stroke:none;stroke-width:0.1;stroke-linecap:butt;stroke-miterlimit:4;stroke-dasharray:none;stroke-dashoffset:0;stroke-opacity:1"
       d="m -1195.4455,852.60037 -27.8603,-1.73709 -11.5089,-1.17824 -29.9056,130.27903 -8.9708,39.38643 11.5175,4.206 13.22,-35.76528 19.4657,30.82758 40.6253,18.6561 2.9672,-21.2028 -40.6772,-36.82252 z"
       id="path8087-3"
       inkscape:connector-curvature="0" />
    <path
       style="opacity:0.98999999;fill:#1e0e08;fill-opacity:1;fill-rule:nonzero;stroke:none;stroke-width:0.1;stroke-linecap:butt;stroke-miterlimit:4;stroke-dasharray:none;stroke-dashoffset:0;stroke-opacity:1"
       d="m -1087.4173,312.81683 -25.7269,0 -2.7081,50.09984 -2.7081,-24.37289 -10.8324,44.68363 -29.7891,69.05653 -41.9755,36.55934 -21.6649,2.7081 21.6649,-86.65918 36.5593,-97.49157 24.3729,-21.66479 21.6648,-4.06215 28.435,8.1243 13.5405,18.95669 z"
       id="path8136"
       inkscape:connector-curvature="0" />
    <path
       style="opacity:0.98999999;fill:#551e00;fill-opacity:1;fill-rule:nonzero;stroke:none;stroke-width:0.1;stroke-linecap:butt;stroke-miterlimit:4;stroke-dasharray:none;stroke-dashoffset:0;stroke-opacity:1"
       d="m -1048.1499,543.00527 24.3729,35.20529 89.36731,21.66478 9.47834,33.85124 -97.49155,-16.2486 -46.0377,-36.55933 z"
       id="path8138"
       inkscape:connector-curvature="0"
       sodipodi:nodetypes="ccccccc" />
    <path
       style="opacity:0.98999999;fill:#acacac;fill-opacity:1;fill-rule:nonzero;stroke:none;stroke-width:0.1;stroke-linecap:butt;stroke-miterlimit:4;stroke-dasharray:none;stroke-dashoffset:0;stroke-opacity:1"
       d="m -417.16107,806.77544 -15.13891,57.19144 -50.46304,37.00622 3.3642,-23.54941 26.91362,-30.27782 16.82101,-52.14513 z"
       id="path8148"
       inkscape:connector-curvature="0" />
    <path
       style="opacity:0.98999999;fill:#abacab;fill-opacity:1;fill-rule:nonzero;stroke:none;stroke-width:0.1;stroke-linecap:butt;stroke-miterlimit:4;stroke-dasharray:none;stroke-dashoffset:0;stroke-opacity:1"
       d="m -321.28131,805.09334 -8.41051,16.82101 c 0,0 -58.87354,-18.50311 -65.60194,-20.18521 -6.7284,-1.6821 13.45681,-21.86731 13.45681,-21.86731 z"
       id="path8146"
       inkscape:connector-curvature="0" />
    <path
       style="opacity:0.98999999;fill:#db82c8;fill-opacity:1;fill-rule:nonzero;stroke:none;stroke-width:0.1;stroke-linecap:butt;stroke-miterlimit:4;stroke-dasharray:none;stroke-dashoffset:0;stroke-opacity:1"
       d="m -390.24745,734.44509 c 6.7284,5.0463 28.59572,45.41673 28.59572,45.41673 l -38.68833,38.68833 -63.91984,-3.36421 8.4105,-62.23774 z"
       id="path8144"
       inkscape:connector-curvature="0"
       sodipodi:nodetypes="cccccc" />
    <path
       style="opacity:0.98999999;fill:#16142d;fill-opacity:1;fill-rule:nonzero;stroke:none;stroke-width:0.1;stroke-linecap:butt;stroke-miterlimit:4;stroke-dasharray:none;stroke-dashoffset:0;stroke-opacity:1"
       d="m -324.64551,616.69801 -21.86731,40.37043 -43.73463,20.18521 18.50311,65.60195 -40.37043,25.23151 -48.78093,-3.3642 0,-77.37665 -25.23152,25.23152 -58.87354,13.45681 6.72841,-20.18522 48.78093,-25.23151 30.27782,-33.64203 53.82724,-10.0926 45.41673,3.3642 31.95992,-48.78093 z"
       id="path8142"
       inkscape:connector-curvature="0" />
    <ellipse
       style="opacity:0.98999999;fill:#e6b8a5;fill-opacity:1;fill-rule:nonzero;stroke:none;stroke-width:0.1;stroke-linecap:butt;stroke-miterlimit:4;stroke-dasharray:none;stroke-dashoffset:0;stroke-opacity:1"
       id="path8150"
       cx="-419.68423"
       cy="585.57916"
       rx="32.800972"
       ry="41.211475" />
    <path
       style="opacity:0.98999999;fill:#0f0f24;fill-opacity:1;fill-rule:nonzero;stroke:none;stroke-width:0.1;stroke-linecap:butt;stroke-miterlimit:4;stroke-dasharray:none;stroke-dashoffset:0;stroke-opacity:1"
       d="m -328.00971,798.36494 -11.77471,20.18521 45.41673,21.86731 10.09261,-13.4568 -3.3642,-10.09261 5.0463,-6.72841 11.77471,0 10.09261,-42.05252 -15.13891,0 -21.86732,38.68832 z"
       id="path8152"
       inkscape:connector-curvature="0" />
    <path
       style="opacity:0.98999999;fill:#0f0f24;fill-opacity:1;fill-rule:nonzero;stroke:none;stroke-width:0.1;stroke-linecap:butt;stroke-miterlimit:4;stroke-dasharray:none;stroke-dashoffset:0;stroke-opacity:1"
       d="m -464.32644,887.86154 -8.5686,-21.74088 -45.28341,22.14208 4.32442,16.25564 10.00972,3.60333 2.16222,8.12782 -7.2869,9.24905 36.87899,17.13138 12.73307,-20.30214 -30.3137,-15.88795 z"
       id="path8152-5"
       inkscape:connector-curvature="0"
       sodipodi:nodetypes="ccccccccccc" />
    <path
       style="opacity:1;fill:#f0d825;fill-opacity:1;fill-rule:nonzero;stroke:none;stroke-width:1.29999995;stroke-linecap:butt;stroke-miterlimit:4;stroke-dasharray:5.2, 1.3;stroke-dashoffset:0;stroke-opacity:1"
       d="m 100.63414,415.56069 c 0,0 23.1807,10.44848 16.3629,19.85214 -6.81792,9.40365 -8.18143,11.49331 -8.18143,11.49331 0,0 10.90855,0 12.27216,17.76246 1.36356,17.76247 1.36356,44.92859 1.36356,44.92859 0,0 -6.81792,3.13455 -25.907934,4.17938 -19.08997,1.04484 -27.27139,-7.31394 -27.27139,-7.31394 l 6.81786,-72.09469 5.45424,-21.94185 c 0,0 -14.99928,-70.00498 -6.81781,-67.91527 8.18138,2.08972 17.72642,29.25578 17.72642,29.25578 0,0 0,-25.0764 5.45424,-24.03156 5.454304,1.04482 5.454354,52.24256 2.727184,65.82565 z"
       id="path8571"
       inkscape:connector-curvature="0"
       sodipodi:nodetypes="cscscscccscsc" />
    <path
       style="opacity:1;fill:#40361c;fill-opacity:1;fill-rule:nonzero;stroke:none;stroke-width:1.29999995;stroke-linecap:butt;stroke-miterlimit:4;stroke-dasharray:5.2, 1.3;stroke-dashoffset:0;stroke-opacity:1"
       d="m 108.30323,444.81048 11.5689,15.10569 c 0,0 8.07501,40.85534 -2.83358,42.945 -10.90855,2.08977 -35.211174,-5.75073 -35.211174,-5.75073 l -2.56048,-48.14433 9.09512,-31.31575 -12.83565,-63.42191 8.74492,6.47753 5.4543,3.65698 -5.28095,-12.41134 -8.35477,-8.48564 -6.48283,0.3806 -0.33525,12.15766 10.90854,59.55651 -8.18142,20.89696 -4.09073,72.09464 13.63572,5.22427 25.907874,1.04489 19.09003,-2.08972 -2.72718,-50.15279 -5.45424,-12.53825 z"
       id="path8573"
       inkscape:connector-curvature="0"
       sodipodi:nodetypes="ccsccccccccccccccccccc" />
    <path
       style="opacity:1;fill:#ff0000;fill-opacity:1;fill-rule:nonzero;stroke:none;stroke-width:1.29999995;stroke-linecap:butt;stroke-miterlimit:4;stroke-dasharray:5.2, 1.3;stroke-dashoffset:0;stroke-opacity:1"
       d="m 108.61279,446.05252 -14.345094,7.0663 -11.271,-0.39301 -11.27116,-3.92565 -1.53697,10.59936 12.80813,2.74802 8.70945,-1.17769 14.857304,-5.88861 7.17249,-4.71087 z"
       id="path8637"
       inkscape:connector-curvature="0" />
    <ellipse
       style="opacity:1;fill:#5a4b24;fill-opacity:1;fill-rule:nonzero;stroke:none;stroke-width:1.29999995;stroke-linecap:butt;stroke-miterlimit:4;stroke-dasharray:5.2, 1.3;stroke-dashoffset:0;stroke-opacity:1"
       id="path8639"
       cx="101.25372"
       cy="427.06311"
       rx="6.0563869"
       ry="5.5508323" />
    <path
       style="opacity:1;fill:#5a4b24;fill-opacity:1;fill-rule:nonzero;stroke:none;stroke-width:1.29999995;stroke-linecap:butt;stroke-miterlimit:4;stroke-dasharray:5.2, 1.3;stroke-dashoffset:0;stroke-opacity:1"
       d="m 96.317036,392.66277 -4.61089,-20.41375 2.04928,-17.66566 1.53696,-3.92577 1.53697,5.88856 0,18.05831 z"
       id="path8643"
       inkscape:connector-curvature="0" />
    <ellipse
       style="opacity:0.98999999;fill:#dbf0d7;fill-opacity:1;fill-rule:nonzero;stroke:none;stroke-width:0.1;stroke-linecap:butt;stroke-miterlimit:4;stroke-dasharray:none;stroke-dashoffset:0;stroke-opacity:1"
       id="path8117"
       cx="-183.95839"
       cy="45.398926"
       rx="27.445532"
       ry="38.431206"
       transform="matrix(1,0,-0.17238033,0.98503047,0,0)" />
    <ellipse
       style="opacity:0.98999999;fill:#c76218;fill-opacity:1;fill-rule:nonzero;stroke:none;stroke-width:0.1;stroke-linecap:butt;stroke-miterlimit:4;stroke-dasharray:none;stroke-dashoffset:0;stroke-opacity:1"
       id="path8119"
       cx="-205.74361"
       cy="63.174061"
       rx="7.3345819"
       ry="7.0979824" />
    <ellipse
       style="opacity:0.98999999;fill:#c76218;fill-opacity:1;fill-rule:nonzero;stroke:none;stroke-width:0.1;stroke-linecap:butt;stroke-miterlimit:4;stroke-dasharray:none;stroke-dashoffset:0;stroke-opacity:1"
       id="path8121"
       cx="-185.63268"
       cy="15.144366"
       rx="3.7855906"
       ry="4.0221901" />
    <ellipse
       style="opacity:0.98999999;fill:#c76218;fill-opacity:1;fill-rule:nonzero;stroke:none;stroke-width:0.1;stroke-linecap:butt;stroke-miterlimit:4;stroke-dasharray:none;stroke-dashoffset:0;stroke-opacity:1"
       id="path8123"
       cx="-197.93584"
       cy="30.996542"
       rx="6.1515846"
       ry="6.6247835" />
    <ellipse
       style="opacity:0.98999999;fill:#c76218;fill-opacity:1;fill-rule:nonzero;stroke:none;stroke-width:0.1;stroke-linecap:butt;stroke-miterlimit:4;stroke-dasharray:none;stroke-dashoffset:0;stroke-opacity:1"
       id="path8125"
       cx="-209.29262"
       cy="40.460529"
       rx="1.8927953"
       ry="2.3659942" />
    <ellipse
       style="opacity:0.98999999;fill:#c76218;fill-opacity:1;fill-rule:nonzero;stroke:none;stroke-width:0.1;stroke-linecap:butt;stroke-miterlimit:4;stroke-dasharray:none;stroke-dashoffset:0;stroke-opacity:1"
       id="path8127"
       cx="-193.20384"
       cy="46.138905"
       rx="3.7855906"
       ry="4.2587895" />
    <circle
       style="opacity:0.98999999;fill:#c76218;fill-opacity:1;fill-rule:nonzero;stroke:none;stroke-width:0.1;stroke-linecap:butt;stroke-miterlimit:4;stroke-dasharray:none;stroke-dashoffset:0;stroke-opacity:1"
       id="path8129"
       cx="-176.40529"
       cy="31.233145"
       r="3.0757923" />
    <path
       style="opacity:0.98999999;fill:#b3b3b3;fill-opacity:1;fill-rule:nonzero;stroke:none;stroke-width:0.1;stroke-linecap:butt;stroke-miterlimit:4;stroke-dasharray:none;stroke-dashoffset:0;stroke-opacity:1"
       d="m -163.39235,46.612108 c -1.82938,10.45361 -6.55752,19.917599 -12.72304,26.768169 -6.16551,6.85057 -13.7684,11.08774 -21.34727,11.08774 -7.57887,0 -13.69876,-4.23717 -17.46657,-11.08774 13.74054,0.72061 19.00615,0.97675 28.35014,-4.05463 18.45475,-9.937179 18.87463,-29.60736 18.87463,-29.60736 -1.84099,-9.03076 2.85073,-21.29395 -14.61583,-32.3816895 7.57887,0 11.80594,5.6567695 15.57376,12.5073395 3.76781,6.85057 5.18357,16.31455 3.35418,26.768171 z"
       id="path8117-6"
       inkscape:connector-curvature="0"
       sodipodi:nodetypes="ssscsscss" />
    <ellipse
       style="opacity:0.98999999;fill:#c76218;fill-opacity:1;fill-rule:nonzero;stroke:none;stroke-width:0.1;stroke-linecap:butt;stroke-miterlimit:4;stroke-dasharray:none;stroke-dashoffset:0;stroke-opacity:1"
       id="path8131"
       cx="-176.40529"
       cy="45.429096"
       rx="4.495389"
       ry="4.0221901" />
    <ellipse
       style="opacity:0.98999999;fill:#c76218;fill-opacity:1;fill-rule:nonzero;stroke:none;stroke-width:0.1;stroke-linecap:butt;stroke-miterlimit:4;stroke-dasharray:none;stroke-dashoffset:0;stroke-opacity:1"
       id="path8133"
       cx="-184.44966"
       cy="65.776665"
       rx="4.495389"
       ry="4.0221901" />
    <ellipse
       style="opacity:0.98999999;fill:#ffffff;fill-opacity:1;fill-rule:nonzero;stroke:none;stroke-width:0.1;stroke-linecap:butt;stroke-miterlimit:4;stroke-dasharray:none;stroke-dashoffset:0;stroke-opacity:1"
       id="path8151"
       cx="-263.35715"
       cy="-61.913506"
       rx="19.637751"
       ry="27.208933"
       transform="matrix(0.89270245,-0.45064658,0.45064658,0.89270245,0,0)" />
    <path
       style="opacity:0.98999999;fill:#b3b3b3;fill-opacity:1;fill-rule:nonzero;stroke:none;stroke-width:0.1;stroke-linecap:butt;stroke-miterlimit:4;stroke-dasharray:none;stroke-dashoffset:0;stroke-opacity:1"
       d="m -246.69775,48.953348 c 4.64448,6.37979 7.41747,13.92206 8.14621,20.958879 0.72875,7.03681 -0.58675,13.56819 -4.1192,17.92621 -3.53246,4.35801 -8.61306,5.71754 -13.97166,4.3926 6.78331,-7.53384 9.37227,-10.43114 11.08164,-18.36846 3.37605,-15.676549 -6.77202,-25.943229 -6.77202,-25.943229 -4.03336,-4.429241 -9.86895,-12.492061 -23.84059,-8.099451 3.53246,-4.35802 8.47734,-3.9056 13.83593,-2.58067 5.3586,1.32492 10.99521,5.33431 15.63969,11.714121 z"
       id="path8117-6-5"
       inkscape:connector-curvature="0"
       sodipodi:nodetypes="ssscsscss" />
    <path
       style="opacity:0.98999999;fill:#580207;fill-opacity:1;fill-rule:nonzero;stroke:none;stroke-width:0.1;stroke-linecap:butt;stroke-miterlimit:4;stroke-dasharray:none;stroke-dashoffset:0;stroke-opacity:1"
       d="m -240.05912,62.790248 1.08188,3.540699 -3.04894,4.72093 -5.4094,5.90117 -11.50726,6.39292 -10.22869,2.06541 -3.14729,-2.36047 15.34303,-4.81928 8.65503,-5.50776 z"
       id="path8289"
       inkscape:connector-curvature="0"
       sodipodi:nodetypes="cccccccccc" />
    <path
       style="opacity:0.98999999;fill:#595959;fill-opacity:1;fill-rule:nonzero;stroke:none;stroke-width:0.1;stroke-linecap:butt;stroke-miterlimit:4;stroke-dasharray:none;stroke-dashoffset:0;stroke-opacity:1"
       d="m -209.08627,28.777197 -9,-1.5 -2.01753,-6.5 -13.48247,1 0.5,5.5 -9,2 -12,54.5 14.5,10.5 17.5,2 26.5,-2 8,-7 z"
       id="path8522"
       inkscape:connector-curvature="0"
       sodipodi:nodetypes="cccccccccccc" />
    <path
       style="opacity:0.98999999;fill:#3f3939;fill-opacity:1;fill-rule:nonzero;stroke:none;stroke-width:0.1;stroke-linecap:butt;stroke-miterlimit:4;stroke-dasharray:none;stroke-dashoffset:0;stroke-opacity:1"
       d="m -232.65375,21.834587 c 0.81403,-0.40701 12.82093,-1.22104 12.82093,-1.22104 l 1.42455,5.49469 9.97184,2.64559 11.59989,29.712001 8.95431,26.862919 -8.54729,9.97183 -17.09458,-64.30818 -10.58236,-1.62805 -8.7508,0.2035 10.78587,-2.03507 -0.61052,-4.88416 z"
       id="path8524-3"
       inkscape:connector-curvature="0" />
    <path
       style="opacity:0.98999999;fill:#24581b;fill-opacity:1;fill-rule:nonzero;stroke:none;stroke-width:0.1;stroke-linecap:butt;stroke-miterlimit:4;stroke-dasharray:none;stroke-dashoffset:0;stroke-opacity:1"
       d="m -203.14104,87.780397 29.33833,-22.71354 -21.76715,22.71354 22.24035,-10.88357 -11.35677,10.88357 25.55273,-5.67838 -18.92795,11.35677 21.76715,3.78559 -23.65995,0.4732 -11.35677,-6.15159 -19.87435,0.4732 -26.97233,7.57118 8.99078,-7.09798 -18.45476,4.25879 -29.81152,8.044383 12.77636,-7.097983 -16.56195,-4.25879 23.65994,-0.4732 -17.50836,-8.51758 23.18674,4.73199 -2.36599,-7.09798 8.04438,3.78559 4.25879,-12.30317 1.89279,9.93717 7.57119,-12.77637 0.47319,15.61556 12.30317,-8.04438 -0.4732,8.04438 12.77637,-12.77636 -5.67838,11.35677 11.35677,-8.51758 z"
       id="path8153"
       inkscape:connector-curvature="0" />
    <ellipse
       style="opacity:0.98999999;fill:#9f0e16;fill-opacity:1;fill-rule:nonzero;stroke:none;stroke-width:0.1;stroke-linecap:butt;stroke-miterlimit:4;stroke-dasharray:none;stroke-dashoffset:0;stroke-opacity:1"
       id="path8151-3-6"
       cx="-153.24129"
       cy="168.85593"
       rx="10.010004"
       ry="13.747456"
       transform="matrix(0.89671225,0.44261399,-0.43186292,0.90193926,0,0)" />
    <ellipse
       style="opacity:0.98999999;fill:#103dd0;fill-opacity:1;fill-rule:nonzero;stroke:none;stroke-width:0.1;stroke-linecap:butt;stroke-miterlimit:4;stroke-dasharray:none;stroke-dashoffset:0;stroke-opacity:1"
       id="path8151-3"
       cx="-245.14207"
       cy="26.453859"
       rx="10.010004"
       ry="13.747456"
       transform="matrix(0.96167243,-0.2742009,0.2856773,0.95832587,0,0)" />
    <path
       style="opacity:0.98999999;fill:#580207;fill-opacity:1;fill-rule:nonzero;stroke:none;stroke-width:0.1;stroke-linecap:butt;stroke-miterlimit:4;stroke-dasharray:none;stroke-dashoffset:0;stroke-opacity:1"
       d="m -199.22339,86.486047 c -0.98239,3.73241 -2.98552,7.03941 -5.42996,9.36884 -2.44443,2.32943 -5.33021,3.6813 -8.07791,3.50347 -2.74768,-0.17783 -4.83706,-1.8517 -5.99391,-4.41422 4.95958,0.58268 6.86079,0.79873 10.40204,-0.7991 6.99409,-3.15582 7.74687,-10.24989 7.74687,-10.24989 -0.39172,-3.30467 1.68366,-7.62346 -4.31025,-12.03765 2.74769,0.17783 4.10749,2.31997 5.26437,4.88244 1.15686,2.5625 1.38118,6.01366 0.39878,9.74608 z"
       id="path8117-6-5-5-2"
       inkscape:connector-curvature="0"
       sodipodi:nodetypes="ssscsscss" />
    <path
       style="opacity:0.98999999;fill:#0c236f;fill-opacity:1;fill-rule:nonzero;stroke:none;stroke-width:0.1;stroke-linecap:butt;stroke-miterlimit:4;stroke-dasharray:none;stroke-dashoffset:0;stroke-opacity:1"
       d="m -218.60182,86.600257 c 1.77849,3.42534 2.51496,7.22091 2.26797,10.58848 -0.247,3.367563 -1.47748,6.307153 -3.63288,8.020543 -2.15539,1.71338 -7.93184,1.04837 -10.50984,-0.0735 5.7218,-0.62233 8.51732,-0.91117 10.06832,-4.47318 3.06325,-7.035133 -0.93588,-15.073613 -0.93588,-15.073613 -2.50944,-2.18564 -3.87182,-6.77945 -11.27744,-6.02518 2.1554,-1.71339 4.60149,-1.03925 7.17949,0.0826 2.578,1.1219 5.06177,3.52849 6.84026,6.95385 z"
       id="path8117-6-5-5"
       inkscape:connector-curvature="0"
       sodipodi:nodetypes="csscsscssc" />
    <path
       style="opacity:0.98999999;fill:#580207;fill-opacity:1;fill-rule:nonzero;stroke:none;stroke-width:0.1;stroke-linecap:butt;stroke-miterlimit:4;stroke-dasharray:none;stroke-dashoffset:0;stroke-opacity:1"
       d="m -256.38568,39.874067 2.95059,1.77035 -5.50776,8.556681 -9.73692,5.99952 -9.73691,2.95058 -5.90117,1.08188 -0.0983,-5.21269 7.37645,-1.672 9.93363,-5.01599 6.39292,-4.32752 z"
       id="path8287"
       inkscape:connector-curvature="0" />
    <ellipse
       style="opacity:0.98999999;fill:#580207;fill-opacity:1;fill-rule:nonzero;stroke:none;stroke-width:0.1;stroke-linecap:butt;stroke-miterlimit:4;stroke-dasharray:none;stroke-dashoffset:0;stroke-opacity:1"
       id="path8293-5"
       cx="-261.25409"
       cy="66.085075"
       rx="4.3766961"
       ry="4.6717544" />
    <ellipse
       style="opacity:0.98999999;fill:#580207;fill-opacity:1;fill-rule:nonzero;stroke:none;stroke-width:0.1;stroke-linecap:butt;stroke-miterlimit:4;stroke-dasharray:none;stroke-dashoffset:0;stroke-opacity:1"
       id="path8295"
       cx="-253.53343"
       cy="66.183434"
       rx="4.6225777"
       ry="1.3277617" />
    <ellipse
       style="opacity:0.98999999;fill:#580207;fill-opacity:1;fill-rule:nonzero;stroke:none;stroke-width:0.1;stroke-linecap:butt;stroke-miterlimit:4;stroke-dasharray:none;stroke-dashoffset:0;stroke-opacity:1"
       id="path8295-9"
       cx="-200.76517"
       cy="-170.62299"
       rx="4.6225777"
       ry="1.3277617"
       transform="matrix(0.5962307,-0.80281315,0.80281315,0.5962307,0,0)" />
    <ellipse
       style="opacity:0.98999999;fill:#580207;fill-opacity:1;fill-rule:nonzero;stroke:none;stroke-width:0.1;stroke-linecap:butt;stroke-miterlimit:4;stroke-dasharray:none;stroke-dashoffset:0;stroke-opacity:1"
       id="path8295-1"
       cx="-238.67805"
       cy="137.18408"
       rx="4.6225777"
       ry="1.3277617"
       transform="matrix(0.95801056,0.28673292,-0.28673292,0.95801056,0,0)" />
    <ellipse
       style="opacity:0.98999999;fill:#580207;fill-opacity:1;fill-rule:nonzero;stroke:none;stroke-width:0.1;stroke-linecap:butt;stroke-miterlimit:4;stroke-dasharray:none;stroke-dashoffset:0;stroke-opacity:1"
       id="path8295-1-2"
       cx="-88.275589"
       cy="256.71396"
       rx="4.6225777"
       ry="1.3277617"
       transform="matrix(0.52626287,0.85032193,-0.85032193,0.52626287,0,0)" />
    <ellipse
       style="opacity:0.98999999;fill:#580207;fill-opacity:1;fill-rule:nonzero;stroke:none;stroke-width:0.1;stroke-linecap:butt;stroke-miterlimit:4;stroke-dasharray:none;stroke-dashoffset:0;stroke-opacity:1"
       id="path8295-1-7"
       cx="-271.46017"
       cy="54.071907"
       rx="4.6225777"
       ry="1.3277617"
       transform="matrix(0.99886844,-0.0475589,0.0475589,0.99886844,0,0)" />
    <ellipse
       style="opacity:0.98999999;fill:#580207;fill-opacity:1;fill-rule:nonzero;stroke:none;stroke-width:0.1;stroke-linecap:butt;stroke-miterlimit:4;stroke-dasharray:none;stroke-dashoffset:0;stroke-opacity:1"
       id="path8295-1-7-0"
       cx="-271.16605"
       cy="-56.105141"
       rx="4.6225777"
       ry="1.3277617"
       transform="matrix(0.89546949,-0.44512289,0.44512289,0.89546949,0,0)" />
    <ellipse
       style="opacity:0.98999999;fill:#580207;fill-opacity:1;fill-rule:nonzero;stroke:none;stroke-width:0.1;stroke-linecap:butt;stroke-miterlimit:4;stroke-dasharray:none;stroke-dashoffset:0;stroke-opacity:1"
       id="path8295-6"
       cx="-261.28687"
       cy="-6.1992841"
       rx="4.6225777"
       ry="1.3277617"
       transform="matrix(0.96484301,-0.26282686,0.26282686,0.96484301,0,0)" />
    <ellipse
       style="opacity:0.98999999;fill:#580207;fill-opacity:1;fill-rule:nonzero;stroke:none;stroke-width:0.1;stroke-linecap:butt;stroke-miterlimit:4;stroke-dasharray:none;stroke-dashoffset:0;stroke-opacity:1"
       id="path8295-2"
       cx="-68.118187"
       cy="-258.85486"
       rx="4.6225777"
       ry="1.3277617"
       transform="matrix(0.03711925,-0.99931084,0.99931084,0.03711925,0,0)" />
    <ellipse
       style="opacity:0.98999999;fill:#580207;fill-opacity:1;fill-rule:nonzero;stroke:none;stroke-width:0.1;stroke-linecap:butt;stroke-miterlimit:4;stroke-dasharray:none;stroke-dashoffset:0;stroke-opacity:1"
       id="path8295-61"
       cx="-204.61594"
       cy="165.98796"
       rx="4.6225777"
       ry="1.3277617"
       transform="matrix(0.91539749,0.40255115,-0.40255115,0.91539749,0,0)" />
    <ellipse
       style="opacity:0.98999999;fill:#580207;fill-opacity:1;fill-rule:nonzero;stroke:none;stroke-width:0.1;stroke-linecap:butt;stroke-miterlimit:4;stroke-dasharray:none;stroke-dashoffset:0;stroke-opacity:1"
       id="path8295-61-8"
       cx="168.89967"
       cy="-215.61041"
       rx="4.6225777"
       ry="1.3277617"
       transform="matrix(-0.38551174,0.92270293,0.92270293,0.38551174,0,0)" />
    <ellipse
       style="opacity:0.98999999;fill:#580207;fill-opacity:1;fill-rule:nonzero;stroke:none;stroke-width:0.1;stroke-linecap:butt;stroke-miterlimit:4;stroke-dasharray:none;stroke-dashoffset:0;stroke-opacity:1"
       id="path8295-61-8-7"
       cx="84.96096"
       cy="-257.0975"
       rx="4.6225777"
       ry="1.3277617"
       transform="matrix(-0.0457213,0.99895423,0.99895423,0.0457213,0,0)" />
    <ellipse
       style="opacity:0.98999999;fill:#580207;fill-opacity:1;fill-rule:nonzero;stroke:none;stroke-width:0.1;stroke-linecap:butt;stroke-miterlimit:4;stroke-dasharray:none;stroke-dashoffset:0;stroke-opacity:1"
       id="path8295-61-8-7-9"
       cx="-21.101883"
       cy="-266.57407"
       rx="4.6225777"
       ry="1.3277617"
       transform="matrix(0.3452564,0.9385084,0.9385084,-0.3452564,0,0)" />
    <path
       style="opacity:0.98999999;fill:#d05d5d;fill-opacity:1;fill-rule:nonzero;stroke:none;stroke-width:0.1;stroke-linecap:butt;stroke-miterlimit:4;stroke-dasharray:none;stroke-dashoffset:0;stroke-opacity:1"
       d="m -226.14153,40.964237 -6.30871,12.617431 -9.76834,10.582359 -22.38576,5.29117 8.95431,-7.326239 13.22795,-4.07014 12.61743,-14.652501 z"
       id="path8526-6"
       inkscape:connector-curvature="0"
       sodipodi:nodetypes="cccccccc" />
    <path
       style="opacity:0.98999999;fill:#d05d5d;fill-opacity:1;fill-rule:nonzero;stroke:none;stroke-width:0.1;stroke-linecap:butt;stroke-miterlimit:4;stroke-dasharray:none;stroke-dashoffset:0;stroke-opacity:1"
       d="m -227.97309,40.760727 -7.32625,0.20351 -7.93677,3.256111 1.22104,-9.971841 5.08767,-0.81403 6.71573,3.05261 2.64559,2.23857 z"
       id="path8528"
       inkscape:connector-curvature="0" />
    <path
       style="opacity:0.98999999;fill:#d05d5d;fill-opacity:1;fill-rule:nonzero;stroke:none;stroke-width:0.1;stroke-linecap:butt;stroke-miterlimit:4;stroke-dasharray:none;stroke-dashoffset:0;stroke-opacity:1"
       d="m -225.53101,37.911637 1.42455,2.44208 7.12274,-1.83156 8.9543,1.42455 4.68066,3.25611 0.81403,-10.17535 -7.12274,-1.22104 -8.14028,1.62805 z"
       id="path8530"
       inkscape:connector-curvature="0" />
    <path
       style="opacity:0.98999999;fill:#d05d5d;fill-opacity:1;fill-rule:nonzero;stroke:none;stroke-width:0.1;stroke-linecap:butt;stroke-miterlimit:4;stroke-dasharray:none;stroke-dashoffset:0;stroke-opacity:1"
       d="m -224.30997,42.795797 4.88417,13.024441 6.30871,9.361319 8.7508,4.07014 6.71573,0 8.34378,-5.494689 -12.00691,0.814029 -9.97184,-3.663119 -8.14027,-11.8034 -2.03507,-5.08768 z"
       id="path8532"
       inkscape:connector-curvature="0" />
    <path
       style="opacity:0.98999999;fill:#722803;fill-opacity:1;fill-rule:nonzero;stroke:none;stroke-width:0.1;stroke-linecap:butt;stroke-miterlimit:4;stroke-dasharray:none;stroke-dashoffset:0;stroke-opacity:1"
       d="m -403.70427,541.00347 c 0,0 20.18522,10.0926 13.45681,21.86731 -6.7284,11.77471 -21.86731,18.50311 -20.18521,30.27782 1.6821,11.77471 3.3642,21.86732 -6.7284,37.00623 -10.09261,15.13891 -13.45681,21.86731 -42.05253,26.91361 -28.59572,5.04631 -13.45681,40.37043 -30.27782,40.37043 -16.82101,0 -42.05253,-31.95992 -30.27782,-45.41673 11.77471,-13.45681 -13.45681,-30.27782 -1.6821,-38.68832 11.7747,-8.41051 11.7747,-45.41673 28.59572,-47.09884 16.82101,-1.6821 35.55277,-35.95123 47.09882,-33.64202 11.54605,2.30921 42.05253,8.41051 42.05253,8.41051 z"
       id="path8263"
       inkscape:connector-curvature="0"
       sodipodi:nodetypes="csssssssszc" />
    <path
       style="opacity:0.98999999;fill:#5a300c;fill-opacity:1;fill-rule:nonzero;stroke:none;stroke-width:0.1;stroke-linecap:butt;stroke-miterlimit:4;stroke-dasharray:none;stroke-dashoffset:0;stroke-opacity:1"
       d="m -987.39335,398.02487 -16.82105,-47.09883 -1.6821,-58.87354 52.14517,-18.50311 25.23152,-3.3642 28.59572,18.50311 -8.41051,25.23152 -25.23151,10.09261 1.6821,43.73462 16.82101,33.64203 -10.09261,5.0463 -15.13891,-45.41673 -15.13891,-13.45681 -8.4105,30.27782 -10.09261,26.91362 z"
       id="path8265"
       inkscape:connector-curvature="0" />
    <path
       style="opacity:0.98999999;fill:#2e2e95;fill-opacity:1;fill-rule:nonzero;stroke:none;stroke-width:0.1;stroke-linecap:butt;stroke-miterlimit:4;stroke-dasharray:none;stroke-dashoffset:0;stroke-opacity:1"
       d="m -638.5163,247.16322 54.54211,12.40193 -5.59406,12.40193 -60.13618,-7.75121 z"
       id="path8271"
       inkscape:connector-curvature="0" />
    <path
       style="opacity:0.98999999;fill:#7373c8;fill-opacity:1;fill-rule:nonzero;stroke:none;stroke-width:0.1;stroke-linecap:butt;stroke-miterlimit:4;stroke-dasharray:none;stroke-dashoffset:0;stroke-opacity:1"
       d="m -622.42018,239.72205 -23.66289,59.57956 -36.80893,38.39571 -5.25842,-5.29596 27.6067,-45.01567 18.40447,-41.04368 14.46065,-3.97198 z"
       id="path8269"
       inkscape:connector-curvature="0" />
    <path
       style="opacity:0.98999999;fill:#551e00;fill-opacity:1;fill-rule:nonzero;stroke:none;stroke-width:0.1;stroke-linecap:butt;stroke-miterlimit:4;stroke-dasharray:none;stroke-dashoffset:0;stroke-opacity:1"
       d="m -628.62114,161.58989 24.80386,13.64213 38.44599,-3.72059 2.48039,6.20096 -29.76464,13.64213 -38.44599,-4.96077 z"
       id="path8279"
       inkscape:connector-curvature="0" />
    <path
       style="opacity:0.98999999;fill:#5a300c;fill-opacity:1;fill-rule:nonzero;stroke:none;stroke-width:0.1;stroke-linecap:butt;stroke-miterlimit:4;stroke-dasharray:none;stroke-dashoffset:0;stroke-opacity:1"
       d="m -643.46409,160.34969 -54.60787,51.9387 15.80754,16.52594 27.30392,-24.78892 -15.80753,54.29955 63.23017,-8.26298 -7.18525,-88.53187 z"
       id="path8267"
       inkscape:connector-curvature="0"
       sodipodi:nodetypes="cccccccc" />
    <ellipse
       style="opacity:0.98999999;fill:#e6b8a5;fill-opacity:1;fill-rule:nonzero;stroke:none;stroke-width:0.1;stroke-linecap:butt;stroke-miterlimit:4;stroke-dasharray:none;stroke-dashoffset:0;stroke-opacity:1"
       id="path8273"
       cx="-625.52063"
       cy="129.96494"
       rx="19.222994"
       ry="22.943573" />
    <path
       style="opacity:0.98999999;fill:#fafaff;fill-opacity:1;fill-rule:nonzero;stroke:none;stroke-width:0.1;stroke-linecap:butt;stroke-miterlimit:4;stroke-dasharray:none;stroke-dashoffset:0;stroke-opacity:1"
       d="m -578.42777,244.64635 -11.74738,24.62148 10.67943,3.93945 27.76655,-25.60634 -8.54355,-7.87888 z"
       id="path8275"
       inkscape:connector-curvature="0" />
    <path
       style="opacity:0.98999999;fill:#fafaff;fill-opacity:1;fill-rule:nonzero;stroke:none;stroke-width:0.1;stroke-linecap:butt;stroke-miterlimit:4;stroke-dasharray:none;stroke-dashoffset:0;stroke-opacity:1"
       d="m -679.46906,329.01597 9.92154,7.44115 13.64213,-3.72058 3.72057,3.72058 -11.16173,13.64212 -21.08329,-7.44115 -4.96077,-11.16173 3.72058,-11.16174 z"
       id="path8277"
       inkscape:connector-curvature="0" />
  </g>
</svg>
